<?xml version="1.0" encoding="UTF-8"?>
<!-- Generator: visioncortex VTracer -->
<svg id="svg" version="1.1" xmlns="http://www.w3.org/2000/svg" style="display: block;" viewBox="0 0 1024 1024"><path d="M0 0 C337.92 0 675.84 0 1024 0 C1024 337.92 1024 675.84 1024 1024 C686.08 1024 348.16 1024 0 1024 C0 686.08 0 348.16 0 0 Z " transform="translate(0,0)" style="fill: #FEFEFE;"/><path d="M0 0 C14.96216422 12.92453167 27.33848709 26.68096943 37.74609375 43.50830078 C38.13539063 44.13575195 38.5246875 44.76320313 38.92578125 45.40966797 C62.4842961 83.92942085 68.65169046 130.63988515 58.64453125 174.45361328 C51.53182822 203.88781606 37.46990923 231.33241933 16.17773438 253.04150391 C14.67571324 254.5804096 13.20327442 256.14457122 11.73046875 257.71142578 C-18.82161697 289.76802437 -64.04538874 308.59198749 -108.1796875 309.71142578 C-155.40231978 310.29342078 -201.84614631 294.74982622 -236.19921875 261.50439453 C-236.70356445 261.0092334 -237.20791016 260.51407227 -237.72753906 260.00390625 C-239.2609948 258.50135509 -240.81430077 257.02177673 -242.37109375 255.54345703 C-253.22901983 245.11113008 -261.73133008 233.55859992 -269.25390625 220.50830078 C-269.91132812 219.39326172 -270.56875 218.27822266 -271.24609375 217.12939453 C-283.78658302 195.24680481 -291.29496828 168.77699599 -291.45703125 143.52001953 C-291.4676207 142.41531815 -291.4676207 142.41531815 -291.47842407 141.28829956 C-291.70643715 110.51544381 -291.70643715 110.51544381 -288.25390625 96.50830078 C-288.06054688 95.69506348 -287.8671875 94.88182617 -287.66796875 94.04394531 C-280.25462729 63.65267745 -265.7633533 37.1426476 -244.25390625 14.50830078 C-243.7758252 14.00298828 -243.29774414 13.49767578 -242.80517578 12.97705078 C-183.98215899 -48.79732595 -87.71196965 -58.10426441 0 0 Z " transform="translate(802.25390625,580.49169921875)" style="fill: #FEFEFE;"/><path d="M0 0 C1.62214388 -0.00461673 3.24428356 -0.0109748 4.86641461 -0.01890898 C9.29513838 -0.0355197 13.72351486 -0.02739376 18.15223944 -0.0149641 C22.93966623 -0.00588185 27.72703497 -0.01989909 32.51445007 -0.03088379 C41.88190842 -0.04864019 51.24923834 -0.04484174 60.61670166 -0.03323323 C68.23263828 -0.0241873 75.84853899 -0.02297992 83.46447945 -0.02732849 C84.54981714 -0.02794142 85.63515483 -0.02855436 86.75338154 -0.02918586 C88.95846963 -0.03046481 91.16355772 -0.03176166 93.36864579 -0.03307623 C114.0305097 -0.04447374 134.69230253 -0.03138161 155.35415477 -0.00987476 C173.06793097 0.00799292 190.78160229 0.0048932 208.49537659 -0.0135498 C229.08345756 -0.03497551 249.67147628 -0.04337252 270.25956684 -0.03110075 C272.4566959 -0.0298266 274.65382498 -0.02856912 276.85095406 -0.02732849 C278.47234339 -0.02640284 278.47234339 -0.02640284 280.12648807 -0.02545848 C287.72931375 -0.0220105 295.33209981 -0.02782208 302.93491936 -0.0372467 C312.2059942 -0.04848707 321.47693364 -0.04538393 330.74799304 -0.02412373 C335.47470965 -0.01364035 340.20120084 -0.00944503 344.92791557 -0.02272034 C349.26134789 -0.03470663 353.59434746 -0.02797976 357.92774094 -0.00681013 C359.48883713 -0.00237031 361.04997046 -0.00455083 362.61104243 -0.01431328 C382.13421126 -0.12696554 395.49649853 5.95491256 409.2333827 19.48882902 C411.15805407 21.41024377 413.07372623 23.34036568 414.98927307 25.27087402 C416.38755452 26.66536572 417.78669287 28.05899864 419.18661499 29.45184326 C422.96211074 33.21345372 426.72502301 36.98741761 430.4852972 40.76423669 C434.43548746 44.7283472 438.39590049 48.68222253 442.35481262 52.63761902 C448.99894333 59.27905327 455.63496949 65.92850141 462.26612854 72.58288574 C469.9168225 80.26019119 477.5798758 87.92498587 485.24975371 95.58312255 C492.64910035 102.97166524 500.03990108 110.36869942 507.4267807 117.76970482 C510.56105295 120.90971359 513.69819389 124.04681355 516.83771515 127.18157387 C520.53829686 130.8773599 524.23128122 134.58057889 527.91869164 138.289505 C529.2677142 139.6440602 530.61924442 140.99612366 531.97354317 142.34540367 C541.07081694 151.41320231 549.70334645 160.46810538 554.72462463 172.50793457 C554.99308008 173.12193745 555.26153553 173.73594032 555.53812599 174.36854935 C558.88454473 183.53597656 558.14453102 193.30522596 558.11280823 202.91711426 C558.11687758 204.98764828 558.12222149 207.05818012 558.1287384 209.12870789 C558.14237109 214.72963417 558.13713096 220.33039399 558.12760115 225.93132305 C558.11998765 231.79949569 558.12705447 237.66765441 558.13175964 243.53582764 C558.13721054 253.38446606 558.13004123 263.23303689 558.11573792 273.08166504 C558.09939459 284.46641149 558.10471485 295.85099689 558.12121713 307.23573947 C558.13482932 317.01855814 558.1367535 326.80132833 558.12890112 336.58415341 C558.12422549 342.42375152 558.12359719 348.26327389 558.13351059 354.10286713 C558.14217467 359.58916079 558.13616843 365.07524652 558.11882782 370.56151772 C558.11486079 372.57469907 558.1160007 374.58789792 558.12261581 376.60107231 C558.13081227 379.3487255 558.1205328 382.09571205 558.10557556 384.84332275 C558.11561381 386.03836052 558.11561381 386.03836052 558.12585485 387.25754046 C558.06801246 392.73458443 557.06602141 396.99972072 553.18946838 401.15246582 C546.96093705 405.91546037 542.51847783 406.24243382 534.72462463 405.50793457 C530.24591807 403.34855819 527.54264275 400.57840519 524.72462463 396.50793457 C523.52891203 392.92079677 523.58948776 389.66653657 523.60437012 385.93403625 C523.60351569 385.15559803 523.60266127 384.37715981 523.60178095 383.57513255 C523.60012981 380.9587159 523.60564158 378.34236292 523.61109924 375.72595215 C523.61138122 373.85361228 523.61122318 371.9812723 523.61065674 370.1089325 C523.61036917 365.01835376 523.61625935 359.92779847 523.6232307 354.8372252 C523.62947099 349.52008065 523.63006857 344.20293561 523.6312561 338.88578796 C523.63436742 328.81358157 523.64257813 318.74138601 523.65260559 308.66918439 C523.66377291 297.20379633 523.66927874 285.73840776 523.67430103 274.27301562 C523.6847609 250.68464926 523.7023565 227.09629252 523.72462463 203.50793457 C523.17392933 203.51069995 522.62323402 203.51346533 522.05585098 203.51631451 C508.60755582 203.58279448 495.15928975 203.63212963 481.71086502 203.66337109 C475.20708824 203.67898997 468.70343055 203.70015922 462.19972229 203.73425293 C455.9167998 203.76698105 449.63399149 203.78481597 443.3509903 203.7925663 C440.96055557 203.79808569 438.57012669 203.80886343 436.17974091 203.82512474 C432.81728886 203.84707764 429.4553015 203.84989403 426.0927887 203.84851074 C425.11670151 203.85929657 424.14061432 203.8700824 423.13494873 203.88119507 C406.94475182 203.80968105 392.45747386 197.60501364 380.72462463 186.50793457 C362.80075625 167.9159155 362.27100323 146.82078252 362.43165588 122.42199707 C362.43726043 119.90852106 362.44152647 117.39504175 362.44451904 114.88156128 C362.45474151 108.97810361 362.47830277 103.07482116 362.50856751 97.17143476 C362.54563169 89.77842353 362.56155434 82.38539018 362.57814026 74.99230957 C362.6101854 61.83076526 362.66071162 48.66936079 362.72462463 35.50793457 C315.16430847 35.56678049 267.6040394 35.64130052 220.04378219 35.73692085 C214.43226961 35.74818938 208.82075678 35.75932777 203.20924377 35.77038574 C201.53347622 35.77369127 201.53347622 35.77369127 199.82385477 35.77706357 C181.72096577 35.81246179 163.61807682 35.83731166 145.51516602 35.85828159 C126.94788036 35.88002355 108.38063972 35.91305865 89.81339234 35.95663613 C78.35108996 35.98318053 66.8888437 36.00085535 55.42651208 36.00728061 C47.57251508 36.01252597 39.71858876 36.02871419 31.8646296 36.05360023 C27.32940393 36.06764449 22.79430488 36.07677515 18.25905609 36.07294273 C14.10942071 36.0695424 9.96005619 36.07983992 5.81047633 36.10117009 C4.30704186 36.10645561 2.80357939 36.10665449 1.30014507 36.1013302 C-0.7396525 36.09484067 -2.77948465 36.10848006 -4.81923962 36.12317371 C-5.95346424 36.12507232 -7.08768887 36.12697092 -8.25628394 36.12892705 C-11.68027032 36.55876385 -13.52073377 37.45966606 -16.27537537 39.50793457 C-19.63127153 43.9824628 -21.3993886 47.36320514 -21.40302587 52.94822466 C-21.40604183 53.86431386 -21.4090578 54.78040305 -21.41216516 55.72425252 C-21.41039569 56.73416255 -21.40862622 57.74407259 -21.40680313 58.78458595 C-21.40988208 60.39644219 -21.40988208 60.39644219 -21.41302323 62.04086119 C-21.41872345 65.6783039 -21.41723227 69.3157091 -21.41581726 72.95315552 C-21.41839917 75.57270393 -21.42141184 78.19225194 -21.42482066 80.81179941 C-21.43241175 87.27977038 -21.43459429 93.74773309 -21.43514972 100.21570805 C-21.43606227 107.95994649 -21.4427266 115.70417726 -21.44949654 123.44841241 C-21.46557049 142.16849031 -21.47146147 160.88856741 -21.47624529 179.60865097 C-21.47857991 188.46202641 -21.48218242 197.31540121 -21.48594067 206.16877615 C-21.4987776 236.46595918 -21.50949652 266.76314184 -21.51294327 297.06032753 C-21.5131649 298.96288443 -21.51338669 300.86544134 -21.51360862 302.76799824 C-21.51382926 304.67519368 -21.51404974 306.58238912 -21.51427007 308.48958457 C-21.51471262 312.31585097 -21.51515974 316.14211738 -21.51560974 319.96838379 C-21.51571913 320.91707825 -21.51582852 321.86577271 -21.51594123 322.84321549 C-21.51957218 353.60741999 -21.53549294 384.37160093 -21.55880011 415.1357964 C-21.58338806 447.64992878 -21.59711563 480.16404769 -21.59831119 512.67818964 C-21.59848264 516.24649263 -21.59869807 519.81479561 -21.59894562 523.3830986 C-21.59900139 524.261736 -21.59905715 525.1403734 -21.59911461 526.04563617 C-21.60026599 540.19483504 -21.61129541 554.34400976 -21.62583267 568.49320047 C-21.64018876 582.71179189 -21.64343969 596.93035231 -21.6353927 611.14894898 C-21.63093217 619.59877962 -21.63481389 628.0485103 -21.6506312 636.49832783 C-21.66036931 642.1421271 -21.65921415 647.78585621 -21.64919497 653.42965481 C-21.64379443 656.6457675 -21.64477401 659.86164933 -21.65570369 663.07775362 C-21.66674013 666.54408916 -21.65934704 670.00991523 -21.64731216 673.47623634 C-21.65490736 674.47209938 -21.66250255 675.46796241 -21.6703279 676.49400312 C-21.62214857 682.90434857 -21.26771954 690.07543596 -16.85885949 695.13281075 C-12.91984674 698.55351461 -9.71542688 699.63242947 -4.61818409 699.63542652 C-3.65572736 699.63843417 -2.69327062 699.64144182 -1.70164853 699.64454061 C-0.11208916 699.64191505 -0.11208916 699.64191505 1.50958252 699.63923645 C2.63356172 699.64135216 3.75754092 699.64346788 4.91558009 699.6456477 C8.70179144 699.65166444 12.48796962 699.65064636 16.27418518 699.64978027 C18.98082645 699.65223779 21.68746471 699.65625731 24.394104 699.66030884 C30.23319173 699.66842547 36.07227509 699.67336697 41.91136742 699.6765995 C51.14258031 699.68209521 60.37375623 699.69899221 69.60494995 699.71794128 C72.76299184 699.72429824 75.92103383 699.73060666 79.07907581 699.73691845 C79.86834826 699.73850221 80.65762071 699.74008597 81.4708105 699.74171773 C90.45767492 699.75965863 99.44454196 699.77588247 108.43141174 699.79089355 C109.25302643 699.79226943 110.07464112 699.7936453 110.92115323 699.79506286 C124.23013417 699.81698424 137.5391056 699.82774686 150.8481014 699.8352643 C164.51238763 699.84333816 178.17659236 699.86663801 191.84083205 699.90321797 C200.26849983 699.92523375 208.69599998 699.93491046 217.12369505 699.92871764 C222.90186432 699.92554059 228.67989057 699.9368893 234.45801558 699.95961205 C237.79076848 699.97226738 241.12293677 699.97628327 244.45574188 699.96719551 C248.07240122 699.95832967 251.68816219 699.97396623 255.30474854 699.99568176 C256.87757749 699.98301796 256.87757749 699.98301796 258.48218077 699.97009832 C265.63038094 700.04946452 271.2289442 701.17247282 276.59962463 706.29699707 C279.86819687 711.63112537 280.92616686 716.3032493 279.72462463 722.50793457 C277.58339609 728.22442544 274.68198359 730.95927551 269.14571798 733.64651394 C264.59530023 735.26554434 260.00129863 735.05621865 255.22018433 735.01586914 C254.07912662 735.0221091 252.93806892 735.02834907 251.76243371 735.03477812 C247.94794258 735.05070244 244.13409094 735.03810509 240.31959534 735.0255127 C237.58090908 735.02873422 234.84224977 735.03791273 232.10357666 735.04675293 C225.44135663 735.0645171 218.77931712 735.06070678 212.11709008 735.04910237 C206.69832689 735.04005622 201.27961415 735.03884916 195.86084557 735.04319763 C194.70244982 735.04411703 194.70244982 735.04411703 193.52065214 735.045055 C191.95157891 735.04633396 190.38250568 735.04763082 188.81343248 735.04894537 C174.10653804 735.06034599 159.3997434 735.04724759 144.69286533 735.0257439 C132.09345703 735.00789113 119.49419626 735.01096297 106.89479065 735.02941895 C92.24704903 735.05086549 77.59939497 735.05922875 62.95163983 735.04696989 C61.38692074 735.04569578 59.82220164 735.04443829 58.25748253 735.04319763 C57.48772081 735.04258053 56.7179591 735.04196343 55.92487127 735.04132763 C50.51970991 735.03788473 45.11460439 735.04368049 39.70945168 735.05311584 C33.11172903 735.06438014 26.51419652 735.0612041 19.91649542 735.03999287 C16.55473242 735.02953857 13.19354509 735.02744554 9.83174515 735.03858948 C-9.84799386 735.09779024 -25.83028983 734.33871383 -41.02537537 720.25793457 C-52.59182203 707.80389487 -56.43576582 693.33218571 -56.40680313 676.76119804 C-56.40885576 675.67224586 -56.4109084 674.58329367 -56.41302323 673.46134293 C-56.41870157 669.79301414 -56.41723495 666.1247228 -56.41581726 662.45639038 C-56.41840042 659.8075163 -56.4213746 657.15864525 -56.42482066 654.50977242 C-56.4323977 647.98081465 -56.43459357 641.45186507 -56.43514972 634.92290336 C-56.43606365 627.10310991 -56.44273204 619.28332401 -56.44949654 611.46353381 C-56.46555569 592.56360273 -56.47145965 573.66367246 -56.47624529 554.76373578 C-56.47858124 545.822956 -56.48218389 536.88217686 -56.48594067 527.94139758 C-56.49877587 497.33644047 -56.50949526 466.73148372 -56.51294327 436.12652397 C-56.5131649 434.20536785 -56.51338668 432.28421172 -56.51360862 430.36305559 C-56.51382926 428.4372602 -56.51404974 426.5114648 -56.51427007 424.5856694 C-56.51471262 420.72219268 -56.51515974 416.85871597 -56.51560974 412.99523926 C-56.51571913 412.03732183 -56.51582852 411.07940441 -56.51594123 410.09245918 C-56.51957211 379.02976061 -56.53549351 347.96708537 -56.55880011 316.90439573 C-56.58339599 284.06331743 -56.59711599 251.22225246 -56.59831119 218.38116467 C-56.59848264 214.77606336 -56.59869807 211.17096205 -56.59894562 207.56586075 C-56.59900139 206.67818307 -56.59905715 205.79050539 -56.59911461 204.87592838 C-56.60026524 190.59080149 -56.61128824 176.30569855 -56.62583267 162.02057975 C-56.64019884 147.66227672 -56.64343397 133.3040044 -56.6353927 118.94569616 C-56.63093708 110.41649702 -56.63479436 101.88739699 -56.6506312 93.35821087 C-56.66038618 87.65778406 -56.65919801 81.95742661 -56.64919497 76.25700042 C-56.64380667 73.011059 -56.64474525 69.76534541 -56.65570369 66.5194125 C-56.66678251 63.01600964 -56.65931638 59.51310703 -56.64731216 56.00971794 C-56.65490736 55.01136307 -56.66250255 54.0130082 -56.6703279 52.98440015 C-56.55716424 37.66892937 -51.33597841 23.79039083 -40.68553162 12.69543457 C-28.98416437 2.07506884 -15.25603204 -0.09525743 0 0 Z " transform="translate(232.27537536621094,115.4920654296875)" style="fill: #084681;"/><path d="M0 0 C14.96216422 12.92453167 27.33848709 26.68096943 37.74609375 43.50830078 C38.13539063 44.13575195 38.5246875 44.76320313 38.92578125 45.40966797 C62.4842961 83.92942085 68.65169046 130.63988515 58.64453125 174.45361328 C51.53182822 203.88781606 37.46990923 231.33241933 16.17773438 253.04150391 C14.67571324 254.5804096 13.20327442 256.14457122 11.73046875 257.71142578 C-18.82161697 289.76802437 -64.04538874 308.59198749 -108.1796875 309.71142578 C-155.40231978 310.29342078 -201.84614631 294.74982622 -236.19921875 261.50439453 C-236.70356445 261.0092334 -237.20791016 260.51407227 -237.72753906 260.00390625 C-239.2609948 258.50135509 -240.81430077 257.02177673 -242.37109375 255.54345703 C-253.22901983 245.11113008 -261.73133008 233.55859992 -269.25390625 220.50830078 C-269.91132812 219.39326172 -270.56875 218.27822266 -271.24609375 217.12939453 C-283.78658302 195.24680481 -291.29496828 168.77699599 -291.45703125 143.52001953 C-291.4676207 142.41531815 -291.4676207 142.41531815 -291.47842407 141.28829956 C-291.70643715 110.51544381 -291.70643715 110.51544381 -288.25390625 96.50830078 C-288.06054688 95.69506348 -287.8671875 94.88182617 -287.66796875 94.04394531 C-280.25462729 63.65267745 -265.7633533 37.1426476 -244.25390625 14.50830078 C-243.7758252 14.00298828 -243.29774414 13.49767578 -242.80517578 12.97705078 C-183.98215899 -48.79732595 -87.71196965 -58.10426441 0 0 Z M-205.25390625 23.50830078 C-206.51847656 24.58337891 -206.51847656 24.58337891 -207.80859375 25.68017578 C-210.34221099 27.90597037 -212.80292898 30.1919926 -215.25390625 32.50830078 C-216.12660156 33.30494141 -216.99929688 34.10158203 -217.8984375 34.92236328 C-241.13075916 56.92493401 -257.01464794 90.39769256 -258.38037109 122.47900391 C-258.71853026 137.04784831 -258.76707936 151.30604393 -255.25390625 165.50830078 C-255.06054688 166.29575684 -254.8671875 167.08321289 -254.66796875 167.89453125 C-248.14677858 193.5012726 -235.64294698 214.65953404 -217.25390625 233.50830078 C-216.61453125 234.20955078 -215.97515625 234.91080078 -215.31640625 235.63330078 C-199.13994393 252.92538119 -176.04140123 264.24361887 -153.62890625 270.75830078 C-152.78239502 271.00475342 -151.93588379 271.25120605 -151.0637207 271.50512695 C-139.24666579 274.79579399 -127.88351578 275.88507163 -115.62890625 275.82080078 C-114.92524933 275.8193103 -114.22159241 275.81781982 -113.49661255 275.81628418 C-102.48775443 275.77441887 -91.98832714 275.05153281 -81.25390625 272.50830078 C-79.38412109 272.10804688 -79.38412109 272.10804688 -77.4765625 271.69970703 C-42.08160776 263.34308078 -10.44698216 239.1261549 8.57324219 208.43896484 C27.86223873 176.68680318 34.51154794 138.55963513 26.22607422 102.22802734 C16.71346601 64.26260439 -6.76500919 32.73369208 -40.17089844 12.33789062 C-90.66038905 -17.55475624 -159.82048212 -15.11705673 -205.25390625 23.50830078 Z " transform="translate(802.25390625,580.49169921875)" style="fill: #01A882;"/><path d="M0 0 C1.59424476 -0.00542787 3.1884845 -0.01255424 4.78271484 -0.02124023 C9.09055924 -0.03939619 13.39801827 -0.03243864 17.70586896 -0.01972389 C22.22514165 -0.00955774 26.74438256 -0.01899941 31.26365662 -0.02526855 C38.85014741 -0.03253372 46.43648215 -0.02298623 54.02294922 -0.00390625 C62.78167104 0.0178682 71.54002046 0.01080247 80.29873329 -0.01121187 C87.83361697 -0.02938879 95.36838883 -0.03191324 102.90328735 -0.0214572 C107.39713545 -0.01523586 111.89080874 -0.01434924 116.38464546 -0.02760315 C120.60949944 -0.03919478 124.83387513 -0.0310759 129.05867767 -0.00802612 C130.60498449 -0.00275698 132.15133186 -0.00422197 133.6976223 -0.01307678 C150.47133135 -0.10024421 150.47133135 -0.10024421 157.20092773 6.55273438 C157.6559668 7.22175781 158.11100586 7.89078125 158.57983398 8.58007812 C159.05291992 9.25167969 159.52600586 9.92328125 160.01342773 10.61523438 C163.08521699 15.79157129 162.7984883 21.70065955 162.14233398 27.51757812 C159.81864664 33.50517083 155.65861324 37.85011489 149.85110188 40.60410881 C146.83551217 41.62104668 144.4803987 41.76387124 141.30204773 41.75808716 C139.55000786 41.76221115 139.55000786 41.76221115 137.76257324 41.76641846 C136.49014771 41.75922791 135.21772217 41.75203735 133.90673828 41.74462891 C132.54641224 41.74406445 131.18608558 41.74438202 129.82575989 41.74551392 C126.1401695 41.74608709 122.45470963 41.7343385 118.76914954 41.720366 C114.91477608 41.70785279 111.06039955 41.70668768 107.20600891 41.70431519 C99.91045735 41.69810216 92.61496581 41.68169373 85.31944066 41.66161621 C77.01235699 41.6392517 68.70527044 41.62826239 60.39816415 41.61822534 C43.31285272 41.59732735 26.2275997 41.56215481 9.14233398 41.51757812 C9.26025729 47.48085712 9.38448098 53.44395811 9.51464844 59.40698242 C9.5580664 61.43721916 9.59973625 63.46749405 9.63964844 65.49780273 C9.69718545 68.40945963 9.76092676 71.32092326 9.82592773 74.23242188 C9.84264023 75.14595932 9.85935272 76.05949677 9.87657166 77.00071716 C9.56540248 81.08547129 9.56540248 81.08547129 11.14233398 84.51757812 C12.55819035 84.61653132 13.97893084 84.64665627 15.39823914 84.64888 C16.31649979 84.65288818 17.23476044 84.65689636 18.18084717 84.661026 C19.19640686 84.66049728 20.21196655 84.65996857 21.25830078 84.65942383 C22.85340233 84.66463547 22.85340233 84.66463547 24.48072815 84.66995239 C26.7992214 84.67732563 29.11772178 84.68266261 31.43622398 84.68624306 C35.10514992 84.69338585 38.77394033 84.70903667 42.44282532 84.72758484 C52.87771729 84.78015243 63.31253712 84.82802961 73.74755859 84.84350586 C80.12252533 84.8535825 86.49715475 84.88290334 92.8719883 84.92482567 C95.30362205 84.93714899 97.73530343 84.94225451 100.16696739 84.94002724 C103.57147611 84.93767674 106.97501656 84.95982455 110.37939453 84.98754883 C111.38483307 84.98094742 112.39027161 84.97434601 113.42617798 84.96754456 C120.49701146 85.06209678 123.89999263 86.35680511 129.00561523 91.33398438 C129.48385742 91.91019531 129.96209961 92.48640625 130.45483398 93.08007812 C130.9459668 93.65886719 131.43709961 94.23765625 131.94311523 94.83398438 C135.50109754 99.82906702 134.83503518 106.71368365 134.14233398 112.51757812 C131.76598404 118.61190733 128.30058536 121.85280028 122.52677917 124.65782928 C118.14224681 126.2387407 113.7514548 126.0866958 109.13647461 126.06347656 C108.06241364 126.07381424 106.98835266 126.08415192 105.88174438 126.09480286 C102.35386979 126.12415219 98.82657089 126.12572842 95.29858398 126.12695312 C92.84377961 126.14194 90.3889853 126.15866821 87.9342041 126.17706299 C81.48986336 126.22069119 75.04565865 126.24072579 68.60119629 126.25579834 C62.01847303 126.27538555 55.43589631 126.31735386 48.85327148 126.35742188 C35.94967537 126.43267512 23.04610183 126.48375698 10.14233398 126.51757812 C10.13868835 127.32666626 10.13504272 128.13575439 10.13128662 128.96936035 C10.09331353 136.61952956 10.03635613 144.26921678 9.95843124 151.91907501 C9.91903542 155.85133964 9.88680863 159.783383 9.87133789 163.71582031 C9.85611869 167.51568967 9.82158161 171.31495038 9.77402496 175.11454773 C9.75926501 176.55924672 9.75129607 178.00403263 9.75045013 179.44880676 C9.73995114 188.39427847 9.50193411 195.46551355 3.39624023 202.54101562 C-2.42088134 207.1893391 -6.75151171 209.01682348 -14.29907227 208.82617188 C-20.96988657 208.02160038 -25.33550087 204.54733848 -29.63110352 199.59179688 C-32.65996508 194.46974117 -33.10879538 189.03245024 -33.11836243 183.19984436 C-33.12218797 182.49713691 -33.12601352 181.79442945 -33.12995499 181.07042783 C-33.14021056 178.73380443 -33.13630717 176.39743019 -33.13232422 174.06079102 C-33.1366748 172.37817662 -33.1418591 170.6955642 -33.14781189 169.01295471 C-33.16117528 164.45510378 -33.16178357 159.8973359 -33.15924859 155.33946919 C-33.15817717 151.52985706 -33.16306658 147.72026161 -33.16785401 143.91065305 C-33.1789398 134.92129827 -33.17939169 125.93198527 -33.17333984 116.94262695 C-33.16729878 107.67846162 -33.17961658 98.41444811 -33.20090991 89.15030867 C-33.21853908 81.18661663 -33.22452523 73.22297286 -33.22127217 65.25926203 C-33.21946142 60.50718616 -33.22207483 55.75521862 -33.23598671 51.00316048 C-33.24858199 46.53383841 -33.2466049 42.06475272 -33.23357582 37.59543419 C-33.23121427 35.95881698 -33.23392959 34.32218304 -33.24219894 32.68558502 C-33.28736903 23.04821989 -33.14552855 15.54607377 -27.73266602 7.26757812 C-19.74440889 -0.37336347 -10.4654627 -0.06001629 0 0 Z " transform="translate(305.857666015625,224.482421875)" style="fill: #084681;"/><path d="M0 0 C1.51913551 -0.00461248 3.03826655 -0.01096773 4.55738831 -0.01890898 C8.71976991 -0.03557787 12.88178379 -0.02736714 17.04416656 -0.0149641 C21.53777026 -0.00590591 26.03131116 -0.01988716 30.52490234 -0.03088379 C39.32306848 -0.04866538 48.12109808 -0.04483063 56.91926956 -0.03323323 C64.07005178 -0.02419777 71.22079574 -0.02297539 78.37158203 -0.02732849 C79.38952127 -0.02794142 80.4074605 -0.02855436 81.45624638 -0.02918586 C83.52420427 -0.03046477 85.59216214 -0.03176162 87.66012001 -0.03307623 C107.04898909 -0.04448097 126.43778251 -0.03136997 145.82663918 -0.00987476 C162.46128692 0.00799612 179.09582302 0.00489198 195.73046875 -0.0135498 C215.05020486 -0.03495837 234.36987466 -0.04338234 253.68962097 -0.03110075 C255.74994913 -0.02982656 257.81027729 -0.02856908 259.87060547 -0.02732849 C261.39116594 -0.02640284 261.39116594 -0.02640284 262.9424448 -0.02545848 C270.08420466 -0.02200555 277.22592244 -0.02783273 284.36767578 -0.0372467 C293.07172795 -0.04846789 301.77563583 -0.04542408 310.47967148 -0.02412373 C314.92018321 -0.01361495 319.36045443 -0.00948854 323.80096436 -0.02272034 C327.86722805 -0.03465367 331.93302864 -0.0280664 335.99925041 -0.00681013 C337.46885662 -0.00234803 338.93850207 -0.00460158 340.40808296 -0.01431328 C348.37892787 -0.06294105 354.3683326 0.04772087 361.12109375 4.50793457 C365.45260775 9.06157749 366.53879325 12.95617805 366.46875 19.08996582 C365.70838419 24.37835276 362.74120013 28.28297609 358.55859375 31.44543457 C354.24967318 33.323682 350.61588318 33.63408277 345.9140873 33.63936234 C344.63141712 33.64320348 343.34874694 33.64704463 342.02720797 33.65100217 C340.60070899 33.65022192 339.17421005 33.64934314 337.74771118 33.64837646 C336.23473261 33.65096003 334.72175473 33.65397317 333.20877779 33.65737987 C329.04501785 33.66545387 324.88127515 33.66723966 320.71750832 33.66797733 C316.22934633 33.66982715 311.74119331 33.67737405 307.2530365 33.68411255 C297.43706908 33.69769849 287.62110574 33.70372079 277.80513048 33.70812321 C271.67822591 33.71088477 265.55132291 33.71512192 259.4244194 33.71962738 C242.46656964 33.73181959 225.50872114 33.74211952 208.55086708 33.74550247 C206.92267187 33.74583182 206.92267187 33.74583182 205.26158383 33.74616782 C204.17350307 33.7463861 203.08542232 33.74660438 201.96436942 33.74682927 C199.7594494 33.74727274 197.55452939 33.7477193 195.34960938 33.74816895 C193.70902975 33.74850109 193.70902975 33.74850109 192.03530709 33.74883994 C174.30514701 33.75278967 156.57502798 33.77024922 138.84488375 33.79352847 C120.64926683 33.81722644 102.45367053 33.82970359 84.25803792 33.83087039 C74.03870812 33.83178794 63.81943182 33.83756052 53.60011673 33.85569 C44.89997009 33.87106991 36.1998935 33.87622389 27.49973585 33.8679519 C23.05952768 33.86403812 18.61946069 33.86501045 14.17926979 33.87900925 C10.11550392 33.89170435 6.05198593 33.89058951 1.98822062 33.87841853 C0.51717755 33.87645391 -0.95388281 33.87957515 -2.42490153 33.8882629 C-4.42331156 33.8993193 -6.42180306 33.89009684 -8.42021751 33.87987137 C-9.53062979 33.88046846 -10.64104207 33.88106555 -11.7851032 33.88168073 C-17.90328468 33.14257524 -21.94068982 30.10252041 -25.87890625 25.50793457 C-28.19964987 21.41900533 -28.68487619 17.11468908 -27.87890625 12.50793457 C-25.73081039 7.00281448 -22.89762077 3.97287431 -17.50540161 1.36688328 C-11.86463504 -0.47782935 -5.87499884 -0.03882482 0 0 Z " transform="translate(300.87890625,470.4920654296875)" style="fill: #3AA9EF;"/><path d="M0 0 C5.13732685 2.27889068 8.73517913 5.6903077 11.85546875 10.34375 C13.7275781 15.96007806 14.13240742 22.3748676 11.76171875 27.88671875 C8.90146487 32.30641956 5.41005398 36.00471409 1.61328125 39.62890625 C-0.09852068 41.29886413 -1.6524642 43.02748447 -3.20703125 44.84375 C-7.25822012 49.54130833 -11.50785979 54.04645835 -15.74829102 58.57226562 C-19.40381684 62.4753538 -23.03778137 66.39553267 -26.64453125 70.34375 C-30.82165128 74.91517044 -35.03759264 79.44806504 -39.26953125 83.96875 C-43.09925736 88.06089845 -46.90957263 92.16448403 -50.64453125 96.34375 C-54.97351286 101.1877034 -59.40807641 105.92868644 -63.84716797 110.67138672 C-67.50860184 114.58526527 -71.15231809 118.5139744 -74.76953125 122.46875 C-75.64222656 123.42136719 -76.51492188 124.37398437 -77.4140625 125.35546875 C-79.37528222 127.49896063 -81.32902663 129.64909547 -83.28125 131.80078125 C-84.3397408 132.96103143 -85.3983323 134.12118975 -86.45703125 135.28125 C-86.93672363 135.81314941 -87.41641602 136.34504883 -87.91064453 136.89306641 C-97.18142196 147.02444943 -97.18142196 147.02444943 -101.95703125 147.5390625 C-109.8639377 147.28491194 -113.93695615 142.81997691 -119.14453125 137.34375 C-119.91192627 136.54179199 -119.91192627 136.54179199 -120.69482422 135.72363281 C-124.24915625 131.98972466 -127.74602984 128.20472507 -131.23535156 124.41015625 C-134.51224311 120.86340304 -137.83042893 117.35569128 -141.14453125 113.84375 C-142.49106834 112.41293255 -143.83742337 110.98194373 -145.18359375 109.55078125 C-147.75757459 106.81506127 -150.33626839 104.08390273 -152.91796875 101.35546875 C-158.35404309 95.59547193 -163.74719971 89.80231588 -168.89453125 83.78125 C-169.673125 82.87246094 -170.45171875 81.96367188 -171.25390625 81.02734375 C-174.7961621 75.99938968 -175.62066893 71.60455431 -174.73828125 65.6484375 C-173.29010245 60.02721714 -170.22753319 55.78916394 -165.58203125 52.34375 C-160.48273827 49.48930706 -154.81294014 49.24785761 -149.14453125 50.34375 C-143.4071065 53.59841152 -139.16383602 58.15010705 -134.60546875 62.86328125 C-132.95745388 64.54143077 -131.30900353 66.21915272 -129.66015625 67.89648438 C-127.07643151 70.53621614 -124.49681711 73.17966301 -121.92480469 75.83081055 C-119.4334993 78.3943174 -116.92705493 80.94219241 -114.41796875 83.48828125 C-113.64810638 84.29022415 -112.87824402 85.09216705 -112.08505249 85.91841125 C-111.00340317 87.01031013 -111.00340317 87.01031013 -109.89990234 88.12426758 C-109.26958099 88.7717244 -108.63925964 89.41918121 -107.98983765 90.08625793 C-106.22893259 91.56768865 -106.22893259 91.56768865 -104.06924438 91.18388367 C-101.02572116 89.8553915 -99.13334009 87.64765951 -96.83203125 85.28125 C-96.34275146 84.78101318 -95.85347168 84.28077637 -95.34936523 83.76538086 C-92.13100121 80.44921684 -89.08166806 77.01937801 -86.0859375 73.50390625 C-83.54343337 70.67492278 -80.84994943 68.01605919 -78.14453125 65.34375 C-74.90155962 62.14032077 -71.71516961 58.9526776 -68.76953125 55.46875 C-64.90837115 50.92285215 -60.6401985 46.78689144 -56.38134766 42.61767578 C-53.48102974 39.75975779 -50.69774907 36.86782556 -48.0546875 33.76953125 C-43.10968321 28.04613388 -37.74755908 22.72378095 -32.41040039 17.36938477 C-30.57558978 15.52477412 -28.75172645 13.66975417 -26.92773438 11.81445312 C-25.74935712 10.6295524 -24.57034268 9.44528492 -23.390625 8.26171875 C-22.85296005 7.711707 -22.3152951 7.16169525 -21.76133728 6.59501648 C-15.45852604 0.32875572 -8.79456904 -2.69123424 0 0 Z " transform="translate(768.14453125,632.65625)" style="fill: #00A883;"/><path d="M0 0 C1.37569374 -0.00445668 1.37569374 -0.00445668 2.77917928 -0.0090034 C5.86526175 -0.01770414 8.9513055 -0.01919981 12.03739929 -0.02069092 C14.24482812 -0.0253181 16.45225614 -0.03034262 18.65968323 -0.03573608 C24.66591494 -0.0488713 30.67213546 -0.05530718 36.6783793 -0.05974674 C40.42881881 -0.06267553 44.17925525 -0.06677995 47.92969322 -0.07125092 C58.31390509 -0.08336088 68.69811479 -0.09374268 79.08233356 -0.09712601 C80.07923026 -0.09745536 80.07923026 -0.09745536 81.09626628 -0.09779136 C82.09554564 -0.09811878 82.09554564 -0.09811878 83.11501247 -0.09845281 C84.46495521 -0.09889627 85.81489796 -0.09934284 87.1648407 -0.09979248 C87.83445865 -0.10001391 88.50407661 -0.10023534 89.19398602 -0.10046348 C100.0438376 -0.10441137 110.89362201 -0.12186524 121.74344764 -0.145152 C132.88323275 -0.16886808 144.02299336 -0.18107 155.16280621 -0.18249393 C161.41723482 -0.18354324 167.6715687 -0.18947795 173.92597389 -0.20731354 C179.80858321 -0.22376225 185.69102627 -0.22596524 191.57365036 -0.21717453 C193.73357653 -0.21640245 195.89351152 -0.22076924 198.0534153 -0.23063278 C201.00065316 -0.24330321 203.94729781 -0.23750201 206.89453125 -0.22705078 C207.75047121 -0.23510719 208.60641117 -0.24316359 209.4882887 -0.25146413 C215.13548079 -0.20458671 219.44910069 0.68809531 223.78227234 4.64044189 C227.46710567 9.3728031 228.56958078 12.83798482 228.47367859 18.72637939 C227.89153874 22.90966341 226.15564139 26.20427639 223.13774109 29.14044189 C217.40815337 32.83792067 212.5187903 33.71892708 205.79483032 33.64164734 C204.43216273 33.64994893 204.43216273 33.64994893 203.0419665 33.65841824 C200.01493323 33.67197066 196.98873222 33.65708485 193.9617157 33.64215088 C191.78472545 33.64593599 189.60773762 33.6514376 187.43075562 33.65852356 C181.53001838 33.67246946 175.62957302 33.6613146 169.72885203 33.64481235 C163.55016912 33.63094888 157.37150292 33.63742334 151.19281006 33.64094543 C140.81853031 33.64364632 130.44436634 33.63018162 120.07011414 33.60699463 C108.0787341 33.58037867 96.08763975 33.57864049 84.09623331 33.59038299 C72.55572342 33.6011642 61.01528347 33.59497143 49.47477913 33.58082771 C44.56544401 33.57507163 39.65616013 33.57514763 34.74682426 33.57989311 C28.96588826 33.58466741 23.185164 33.57454219 17.40426826 33.55293846 C15.28347106 33.5473769 13.16265348 33.5468995 11.04185486 33.55189133 C8.14555815 33.55785329 5.24990682 33.54532126 2.35366821 33.52812195 C1.51572454 33.53413199 0.67778087 33.54014204 -0.18555504 33.54633421 C-6.20370514 33.4814081 -11.1455843 32.52159096 -15.82319641 28.42169189 C-16.28983704 27.83387939 -16.75647766 27.24606689 -17.23725891 26.64044189 C-17.71936829 26.05262939 -18.20147766 25.46481689 -18.69819641 24.85919189 C-21.32766432 20.97675605 -21.46092468 16.66369433 -20.86225891 12.14044189 C-19.07487302 7.32227123 -16.12076492 3.9794459 -11.86225891 1.14044189 C-7.90561307 -0.17844005 -4.12490708 -0.00414332 0 0 Z " transform="translate(293.8622589111328,539.8595581054688)" style="fill: #39A8EF;"/><path d="M0 0 C6.2624666 5.17419032 11.9745449 10.83279911 17.70874023 16.5793457 C18.77359234 17.64284066 19.8386566 18.70612323 20.90391541 19.76921082 C23.77764309 22.63840486 26.64822933 25.51072225 29.51809955 28.38377404 C32.52481183 31.39302706 35.53397327 34.39982943 38.54273987 37.4070282 C43.58717702 42.44965034 48.62951108 47.49436824 53.6706543 52.5402832 C59.50548804 58.380576 65.34393942 64.21723373 71.18424839 70.05205089 C76.2010484 75.06432182 81.21590832 80.07852759 86.22913319 85.09437436 C89.22265241 88.08945521 92.21684951 91.08384996 95.21279716 94.07650185 C98.02302209 96.88385044 100.8308131 99.69361031 103.63669777 102.50529671 C104.66947824 103.5394053 105.70312147 104.57265301 106.73766327 105.60499954 C108.14307842 107.00770572 109.54514613 108.41376349 110.94700623 109.82002258 C112.12801234 111.00159423 112.12801234 111.00159423 113.33287716 112.20703602 C115 114 115 114 115 115 C102.89942473 115.09284531 90.79893477 115.16383888 78.69807529 115.20724869 C73.0786178 115.22808749 67.45940473 115.25633762 61.84008789 115.30175781 C56.41303556 115.34534743 50.98621777 115.36916498 45.55900383 115.37950897 C43.49262744 115.38687679 41.4262633 115.40126434 39.35998726 115.42292023 C36.45659169 115.45212837 33.55415456 115.45594872 30.65063477 115.45410156 C29.80402283 115.46848267 28.95741089 115.48286377 28.08514404 115.49768066 C19.68458682 115.44017831 12.70765555 112.37162676 6.50390625 106.71484375 C0.91249757 100.33918554 -0.14750262 93.2353036 -0.11352539 85.03051758 C-0.11367142 84.11324387 -0.11381744 83.19597015 -0.1139679 82.25090027 C-0.11327057 79.21541997 -0.10548656 76.18000084 -0.09765625 73.14453125 C-0.09579143 71.04131606 -0.09436783 68.93810043 -0.09336853 66.83488464 C-0.08954839 61.29630334 -0.07972237 55.7577482 -0.06866455 50.21917725 C-0.05843964 44.56864781 -0.05386859 38.91811415 -0.04882812 33.26757812 C-0.03809968 22.17837391 -0.02102926 11.08918913 0 0 Z " transform="translate(629,170)" style="fill: #3BAAF0;"/><path d="M0 0 C1.5776377 -0.003505 3.15527184 -0.00916786 4.7328949 -0.01681519 C8.9994536 -0.03101615 13.26536419 -0.01404951 17.53186083 0.00946999 C22.00401554 0.02963205 26.47614474 0.02369677 30.94833374 0.0213623 C38.45508466 0.02141581 45.96158329 0.04113404 53.46826172 0.07324219 C62.14118894 0.11015886 70.81378617 0.11891332 79.48678172 0.11194468 C87.84078519 0.10563585 96.19467578 0.11639927 104.54865646 0.13591003 C108.09955837 0.1440745 111.65040251 0.14679535 115.20131302 0.1452179 C119.38260157 0.14433782 123.56357738 0.15858804 127.7447834 0.18444443 C129.27740907 0.19159495 130.81006803 0.19369521 132.34270668 0.19032669 C134.4380877 0.1866003 136.53256176 0.20139775 138.62783813 0.2208252 C140.38486022 0.22641827 140.38486022 0.22641827 142.1773777 0.23212433 C148.40399944 0.97058636 152.35279007 3.98103464 156.40771484 8.61523438 C158.34133355 14.41609048 158.40130503 20.51340898 155.78271484 26.05273438 C151.77195916 30.38012866 147.59913211 33.46386982 141.57775593 33.74945545 C140.41839118 33.75372893 139.25902643 33.75800241 138.06452942 33.7624054 C137.09522406 33.76792043 137.09522406 33.76792043 136.10633677 33.77354687 C133.93701271 33.78457602 131.76773657 33.78842625 129.59838867 33.79223633 C128.04444222 33.79850163 126.49049727 33.80514849 124.93655396 33.81214905 C119.82929527 33.83318619 114.72203631 33.84355198 109.61474609 33.85351562 C107.85571464 33.85756349 106.09668334 33.86168042 104.33765221 33.86586571 C96.07232 33.88491762 87.80699672 33.89914793 79.54164678 33.90747768 C70.00591659 33.91724667 60.47041874 33.9435573 50.93477041 33.98397857 C43.56139551 34.0141595 36.18808713 34.02894848 28.81465167 34.03225869 C24.41233334 34.03460718 20.01026322 34.04354114 15.60801125 34.06871986 C11.46372863 34.0920399 7.31985695 34.09621816 3.17552567 34.08595848 C1.65822799 34.08546394 0.14090981 34.09176026 -1.37632561 34.10551453 C-9.31154362 34.17339855 -15.82964462 34.20392266 -22.59228516 29.61523438 C-26.76143172 24.37707587 -28.1395594 20.29198015 -27.59228516 13.61523438 C-25.94705845 8.0927218 -23.18026554 4.54426545 -18.24217606 1.63322449 C-12.46095572 -0.58770662 -6.10905874 -0.05716974 0 0 Z " transform="translate(300.59228515625,608.384765625)" style="fill: #39A8EF;"/><path d="M0 0 C3.76603869 1.56282982 6.13639151 3.9063475 8.984375 6.7890625 C9.44483215 7.25234955 9.90528931 7.7156366 10.37969971 8.19296265 C11.84125078 9.66565898 13.29567168 11.14517403 14.75 12.625 C15.74302611 13.62806322 16.73651089 14.63067257 17.73046875 15.6328125 C20.15897941 18.08330835 22.58114675 20.5399667 25 23 C24.34 23.66 23.68 24.32 23 25 C22.51273438 24.44054687 22.02546875 23.88109375 21.5234375 23.3046875 C16.07930521 17.1478688 10.38991396 11.31330507 4.52294922 5.56005859 C2.99824743 4.05714424 1.49671909 2.53078382 0 1 C0 0.67 0 0.34 0 0 Z " transform="translate(636,700)" style="fill: #0BA47D;"/><path d="M0 0 C0 4.54514239 -2.37418713 7.33173771 -5.49609375 10.53515625 C-7.0625 11.9375 -7.0625 11.9375 -10 14 C-10.99 13.67 -11.98 13.34 -13 13 C-8.71 8.71 -4.42 4.42 0 0 Z " transform="translate(796,808)" style="fill: #019E76;"/><path d="M0 0 C3.81684226 1.55500981 6.19195732 4.03595495 9 7 C8.67 7.66 8.34 8.32 8 9 C6.66079162 7.88200014 5.32877444 6.75538103 4 5.625 C2.88625 4.68527344 2.88625 4.68527344 1.75 3.7265625 C1.1725 3.15679688 0.595 2.58703125 0 2 C0 1.34 0 0.68 0 0 Z " transform="translate(651,770)" style="fill: #0FA57E;"/><path d="M0 0 C0 3.93169105 -1.39419615 5.16427228 -4 8 C-4.66 8 -5.32 8 -6 8 C-4.55746343 4.63408134 -2.66735273 2.48952921 0 0 Z " transform="translate(558,595)" style="fill: #069F78;"/></svg>