<?xml version="1.0" encoding="UTF-8"?>
<!-- Generator: visioncortex VTracer -->
<svg id="svg" version="1.1" xmlns="http://www.w3.org/2000/svg" style="display: block; background: rgb(255, 255, 255);" viewBox="0 0 1024 1024"><path d="M0 0 C5.13732685 2.27889068 8.73517913 5.6903077 11.85546875 10.34375 C13.7275781 15.96007806 14.13240742 22.3748676 11.76171875 27.88671875 C8.90146487 32.30641956 5.41005398 36.00471409 1.61328125 39.62890625 C-0.09852068 41.29886413 -1.6524642 43.02748447 -3.20703125 44.84375 C-7.25822012 49.54130833 -11.50785979 54.04645835 -15.74829102 58.57226562 C-19.40381684 62.4753538 -23.03778137 66.39553267 -26.64453125 70.34375 C-31.4239387 75.57564573 -36.25480728 80.75757004 -41.11132812 85.91796875 C-43.99331128 88.99163574 -46.82024608 92.09888841 -49.58203125 95.28125 C-53.24342764 99.4915509 -57.05385996 103.54729505 -60.89453125 107.59375 C-67.89911616 115.00449124 -74.82568765 122.47894924 -81.67626953 130.03271484 C-83.26649522 131.7853176 -84.86154538 133.53343628 -86.45703125 135.28125 C-86.93688477 135.81331055 -87.41673828 136.34537109 -87.91113281 136.89355469 C-97.18116528 147.02442177 -97.18116528 147.02442177 -101.95703125 147.5390625 C-109.87554693 147.28453878 -113.92772447 142.82027911 -119.14453125 137.34375 C-119.69383301 136.77140625 -120.24313477 136.1990625 -120.80908203 135.609375 C-124.64387016 131.59649421 -128.42314441 127.53408187 -132.18896484 123.45654297 C-135.32381788 120.06964932 -138.48534043 116.70792175 -141.64453125 113.34375 C-142.88673912 112.01694616 -144.12892656 110.69012318 -145.37109375 109.36328125 C-147.93976462 106.6224277 -150.51908748 103.8921126 -153.10546875 101.16796875 C-174.74282029 78.33851353 -174.74282029 78.33851353 -175.296875 70.0703125 C-174.60713209 63.32337271 -172.39627908 58.44495395 -167.45703125 53.734375 C-162.58389269 50.12013057 -158.02482651 49.7852358 -152.07421875 49.77734375 C-144.63699855 51.21520632 -139.64734111 57.65018162 -134.60546875 62.86328125 C-132.95745388 64.54143077 -131.30900353 66.21915272 -129.66015625 67.89648438 C-127.07643151 70.53621614 -124.49681711 73.17966301 -121.92480469 75.83081055 C-119.4334993 78.3943174 -116.92705493 80.94219241 -114.41796875 83.48828125 C-113.64810638 84.29022415 -112.87824402 85.09216705 -112.08505249 85.91841125 C-111.00340317 87.01031013 -111.00340317 87.01031013 -109.89990234 88.12426758 C-109.26958099 88.7717244 -108.63925964 89.41918121 -107.98983765 90.08625793 C-106.22893259 91.56768865 -106.22893259 91.56768865 -104.06924438 91.18388367 C-101.02572116 89.8553915 -99.13334009 87.64765951 -96.83203125 85.28125 C-96.34275146 84.78101318 -95.85347168 84.28077637 -95.34936523 83.76538086 C-92.13100121 80.44921684 -89.08166806 77.01937801 -86.0859375 73.50390625 C-83.54343359 70.67492302 -80.8499519 68.01605656 -78.14453125 65.34375 C-74.88070193 62.11977207 -71.67622961 58.90857126 -68.70703125 55.40625 C-65.05894952 51.11280738 -61.05245614 47.1964789 -57.02563477 43.26196289 C-54.26354495 40.54370908 -51.63076803 37.78234492 -49.1171875 34.83203125 C-44.01882392 28.93735722 -38.48283193 23.45890268 -32.9831543 17.94213867 C-31.07591789 16.02510524 -29.17961766 14.0976538 -27.28320312 12.16992188 C-26.05925297 10.93944809 -24.8346656 9.70960775 -23.609375 8.48046875 C-22.77006691 7.62264046 -22.77006691 7.62264046 -21.9138031 6.7474823 C-15.5511957 0.42039789 -8.90667277 -2.72553921 0 0 Z " transform="translate(768.14453125,632.65625)" style="fill: #000000;"/><path d="M0 0 C0.64690914 -0.00297112 1.29381828 -0.00594224 1.96033072 -0.0090034 C4.13199379 -0.0176876 6.3036017 -0.01919841 8.47528076 -0.02069092 C10.03084938 -0.02531934 11.58641687 -0.03034403 13.14198303 -0.03573608 C17.37147892 -0.04886093 21.60095892 -0.05530536 25.83047199 -0.05974674 C28.4733457 -0.06267771 31.11621508 -0.0667826 33.75908661 -0.07125092 C42.02922491 -0.08492691 50.29935329 -0.09459271 58.56950212 -0.09845281 C68.11368997 -0.10293207 77.65773451 -0.1204734 87.20187879 -0.1494534 C94.58033454 -0.17107901 101.95875001 -0.18115758 109.33723712 -0.18249393 C113.74338715 -0.18354145 118.14940247 -0.18943785 122.5555191 -0.20731354 C126.7022117 -0.22380914 130.84866856 -0.22594254 134.99538231 -0.21717453 C136.51470509 -0.21640491 138.03404062 -0.22073694 139.55333138 -0.23063278 C141.63324504 -0.2433822 143.71232753 -0.23746018 145.79223633 -0.22705078 C146.954408 -0.22851734 148.11657967 -0.2299839 149.31396866 -0.2314949 C154.67527863 0.36622652 158.53112502 2.09607883 162.46258545 5.76544189 C165.25790861 9.51730421 166.46059944 13.48224414 166.65008545 18.14044189 C165.94029574 22.64115392 164.22132436 25.96204161 160.83758545 29.01544189 C155.65643398 32.46954287 151.19067259 33.39004862 145.01533508 33.40113831 C143.69618103 33.40822311 142.37702698 33.41530792 141.01789856 33.42260742 C139.56790127 33.42031391 138.1179043 33.41780425 136.66790771 33.4151001 C135.13159945 33.41945019 133.59529336 33.42463433 132.05899048 33.43058777 C127.89576087 33.44395658 123.73262216 33.44455884 119.56937528 33.44202447 C116.09026707 33.44095339 112.61117715 33.4458416 109.13207287 33.45062989 C100.92281244 33.4617176 92.71359778 33.46216652 84.5043335 33.45611572 C76.04280011 33.45007478 67.58143297 33.46239166 59.11992794 33.48368579 C51.84756015 33.50131264 44.57524522 33.50730147 37.30285686 33.50404805 C32.9627133 33.50223689 28.62268834 33.50485476 24.28256416 33.51876259 C20.20065705 33.53135408 16.11900878 33.52938443 12.03710556 33.5163517 C10.54197412 33.5139893 9.04682439 33.51670856 7.55171394 33.52497482 C-8.24596698 33.60599762 -8.24596698 33.60599762 -15.16241455 27.76544189 C-18.21894499 24.09760537 -19.18963385 21.55625478 -19.72491455 16.82794189 C-19.25826693 12.23924029 -18.02206028 8.89942366 -15.34991455 5.14044189 C-10.21386886 1.0525688 -6.45690357 0.01654839 0 0 Z " transform="translate(292.34991455078125,608.8595581054688)" style="fill: #000000;"/><path d="M0 0 C1.37463539 -0.00551503 1.37463539 -0.00551503 2.7770412 -0.01114148 C5.86078617 -0.02219165 8.94449746 -0.02602441 12.02825928 -0.02983093 C14.23406583 -0.03609454 16.43987133 -0.04274124 18.64567566 -0.04974365 C24.64783904 -0.06716198 30.64999446 -0.07770753 36.65217686 -0.08594918 C40.40061393 -0.09109721 44.14904851 -0.09717301 47.89748383 -0.10346031 C58.27740272 -0.12033021 68.65732003 -0.13496536 79.03725052 -0.14220905 C81.73037975 -0.14411891 84.42350898 -0.14603925 87.11663818 -0.147995 C88.12067165 -0.14872061 88.12067165 -0.14872061 89.14498863 -0.14946087 C99.98771991 -0.15776091 110.83034086 -0.18309791 121.67302397 -0.21557567 C132.80716057 -0.24865433 143.94125725 -0.2663258 155.07544684 -0.26985329 C161.32602919 -0.27220619 167.57643712 -0.28119809 173.82697296 -0.30631447 C179.7071578 -0.3295608 185.58705296 -0.33384212 191.4672718 -0.32355309 C193.62517064 -0.32305679 195.78308357 -0.3294046 197.94093895 -0.34310913 C200.88797619 -0.36077816 203.83396819 -0.35374611 206.78100586 -0.34057617 C208.06054654 -0.35703004 208.06054654 -0.35703004 209.36593652 -0.37381631 C215.10387259 -0.31194971 218.41523629 0.85922105 223.14447021 4.14717102 C227.42628161 8.76702016 228.56251506 12.56517271 228.49212646 18.72920227 C227.7350151 23.99495435 224.77071102 27.88683439 220.64447021 31.08467102 C215.27124391 33.3682922 210.02314133 33.29359032 204.28294373 33.28761292 C203.39001816 33.29058404 202.4970926 33.29355516 201.57710868 33.29661632 C198.5848232 33.30528847 195.59257781 33.30681031 192.60028076 33.30830383 C190.4549145 33.31293301 188.30954906 33.3179578 186.16418457 33.323349 C180.3356173 33.33646431 174.50706154 33.34291612 168.67848182 33.34735966 C165.0368972 33.35029142 161.39531572 33.35439641 157.75373268 33.35886383 C146.35953972 33.37253568 134.96535394 33.3822042 123.57115334 33.38606572 C110.41885027 33.39054762 97.26665107 33.40810304 84.11437958 33.43706632 C73.94693211 33.45867943 63.77951388 33.46876979 53.61204368 33.47010684 C47.53978565 33.47115501 41.4676253 33.47706569 35.39539146 33.49492645 C29.68346931 33.51140091 23.97171833 33.51356559 18.25978088 33.50478745 C16.16519525 33.50401678 14.07060044 33.50836371 11.97603798 33.5182457 C9.11280429 33.53096045 6.25017735 33.52509082 3.38694763 33.5146637 C2.14884111 33.5267483 2.14884111 33.5267483 0.88572234 33.53907704 C-5.2871466 33.48663693 -11.02228722 32.51268663 -15.91412354 28.42842102 C-16.3691626 27.84060852 -16.82420166 27.25279602 -17.29302979 26.64717102 C-17.76611572 26.05935852 -18.23920166 25.47154602 -18.72662354 24.86592102 C-21.22314459 21.06498931 -21.15008073 17.56543521 -20.85552979 13.14717102 C-19.03495977 7.28088985 -16.72667622 4.59756641 -11.85552979 1.14717102 C-7.90146004 -0.17085223 -4.12240356 -0.00088174 0 0 Z " transform="translate(293.85552978515625,539.8528289794922)" style="fill: #000000;"/><path d="M0 0 C30.66134538 29.28189835 48.82318505 72.88908852 49.94140625 114.90625 C50.71731661 161.11994121 37.04263593 206.08139714 4.55078125 240.05859375 C4.08994141 240.52845703 3.62910156 240.99832031 3.15429688 241.48242188 C1.65227574 243.02132757 0.17983692 244.58548919 -1.29296875 246.15234375 C-31.78511995 278.14083825 -76.90591019 296.97949379 -120.94921875 298.15234375 C-167.7476388 298.75867014 -214.05577111 283.60645533 -248.31640625 250.84765625 C-248.79239258 250.38069336 -249.26837891 249.91373047 -249.75878906 249.43261719 C-251.40130347 247.82812883 -253.06930453 246.25270189 -254.73828125 244.67578125 C-283.53980732 217.10010202 -303.07954375 176.28718278 -304.40185547 136.171875 C-305.15460014 100.67950081 -305.15460014 100.67950081 -301.27734375 84.94921875 C-301.08398438 84.13598145 -300.890625 83.32274414 -300.69140625 82.48486328 C-293.27733539 52.09060519 -278.78407227 25.58788035 -257.27734375 2.94921875 C-256.77750977 2.41683594 -256.27767578 1.88445313 -255.76269531 1.3359375 C-190.88596772 -67.37987917 -81.99535795 -69.29165899 0 0 Z M-160.27734375 -16.05078125 C-161.44257568 -15.76871826 -161.44257568 -15.76871826 -162.63134766 -15.48095703 C-180.7294392 -10.94108454 -198.3403413 -3.33751173 -213.27734375 7.94921875 C-214.14746094 8.59890625 -215.01757812 9.24859375 -215.9140625 9.91796875 C-246.43430711 33.79950322 -264.91702789 66.33365788 -270.83203125 104.53125 C-272.76998326 120.80656552 -272.12065284 138.00856471 -268.27734375 153.94921875 C-268.11105469 154.6462793 -267.94476562 155.34333984 -267.7734375 156.06152344 C-261.97933984 179.46324011 -250.5654597 200.25432484 -234.27734375 217.94921875 C-233.82697754 218.44873047 -233.37661133 218.94824219 -232.91259766 219.46289062 C-209.78970985 244.89228029 -174.38707472 262.32155367 -139.89428711 264.1262207 C-122.63093958 264.4261515 -106.1152546 264.32345451 -89.27734375 259.94921875 C-88.59510742 259.77261719 -87.91287109 259.59601563 -87.20996094 259.4140625 C-51.98435527 249.84092357 -20.95989582 225.12958257 -2.5378418 193.87060547 C15.64994529 161.91788788 21.82514832 123.84686649 12.41015625 88.07421875 C5.50462828 63.03598014 -6.34041727 42.55047584 -24.27734375 23.94921875 C-24.99277344 23.170625 -25.70820312 22.39203125 -26.4453125 21.58984375 C-45.90210144 1.00142168 -73.03966256 -11.00905912 -100.27734375 -17.05078125 C-101.375625 -17.29828125 -102.47390625 -17.54578125 -103.60546875 -17.80078125 C-121.85511268 -21.10222437 -142.27375822 -20.48586025 -160.27734375 -16.05078125 Z " transform="translate(815.27734375,592.05078125)" style="fill: #000000;"/><path d="M0 0 C1.92439369 -0.00668677 1.92439369 -0.00668677 3.88766402 -0.01350862 C5.31965745 -0.01341932 6.75165089 -0.01322946 8.18364429 -0.01294994 C9.69845941 -0.01624846 11.21327365 -0.019974 12.72808677 -0.02409142 C16.9016443 -0.0341209 21.07518746 -0.03782974 25.24875534 -0.04048073 C29.74583637 -0.04438097 34.24290599 -0.05395949 38.73997974 -0.0626936 C49.60574876 -0.08246582 60.47151872 -0.09252512 71.33730122 -0.10142139 C76.452239 -0.10580299 81.56717574 -0.11117013 86.68211269 -0.11641026 C103.68195061 -0.1334232 120.68178787 -0.14791788 137.681633 -0.155159 C142.09423479 -0.15706894 146.50683658 -0.15898926 150.91943836 -0.16094494 C152.56456523 -0.16167055 152.56456523 -0.16167055 154.24292699 -0.16241082 C172.01384519 -0.17071302 189.78469612 -0.19605287 207.55558493 -0.22852562 C225.79412004 -0.26158162 244.03262094 -0.27960643 262.27118617 -0.28280324 C272.51408865 -0.28496967 282.75689303 -0.29373787 292.99976635 -0.31926441 C301.7222177 -0.34095146 310.44454712 -0.34903166 319.16702237 -0.33929763 C323.61764026 -0.33474716 328.06800647 -0.33668249 332.51858997 -0.35605907 C336.59428083 -0.37365028 340.66953566 -0.3727261 344.74523089 -0.35716178 C346.21836119 -0.35477955 347.69152137 -0.35914121 349.16460594 -0.37099043 C357.14636431 -0.43120886 363.14520249 -0.33687253 369.90601063 4.13422108 C374.23569447 8.68593999 375.32980311 12.58299676 375.24976063 18.71625233 C374.65229564 22.91887538 372.72042695 26.01117424 369.90601063 29.13422108 C364.56168755 32.51532343 359.96456875 33.2586096 353.73303223 33.26564884 C352.45794554 33.26948999 351.18285885 33.27333113 349.86913317 33.27728868 C348.4511837 33.27650843 347.03323428 33.27562965 345.61528492 33.27466297 C344.11126864 33.27724656 342.60725305 33.28025971 341.1032384 33.28366637 C336.96421221 33.29174022 332.82520336 33.29352616 328.68617022 33.29426384 C324.2245742 33.2961137 319.76298719 33.30366066 315.30139637 33.31039906 C305.54321121 33.3239852 295.78503016 33.33000741 286.02683711 33.33440971 C279.93543679 33.33717142 273.84403806 33.34140862 267.75263882 33.34591389 C250.89172655 33.35810646 234.03081556 33.3684061 217.16989899 33.37178898 C215.55098395 33.37211833 215.55098395 33.37211833 213.89936357 33.37245433 C212.81748817 33.37267261 211.73561277 33.37289089 210.62095326 33.37311578 C208.42861887 33.37355925 206.23628447 33.37400581 204.04395008 33.37445545 C202.41273576 33.3747876 202.41273576 33.3747876 200.74856762 33.37512645 C183.1225474 33.37907554 165.4965685 33.39653301 147.87056424 33.41981497 C129.78003364 33.44351795 111.68952378 33.45599033 93.59897739 33.4571569 C83.43941931 33.4580742 73.27991508 33.46384054 63.12037182 33.48197651 C54.47039264 33.49736321 45.82048394 33.50250639 37.17049368 33.49423841 C32.75648976 33.49032695 28.34262784 33.49128566 23.92864132 33.50529575 C19.8876446 33.51800481 15.84689702 33.51686363 11.80590079 33.50470504 C10.34426112 33.50274285 8.88260398 33.50585056 7.42098888 33.5145494 C-7.98923861 33.60045506 -7.98923861 33.60045506 -14.90648937 27.75922108 C-17.96301981 24.09138455 -18.93370867 21.55003396 -19.46898937 16.82172108 C-19.00234175 12.23301948 -17.7661351 8.89320284 -15.09398937 5.13422108 C-10.05278158 1.1218312 -6.34130147 0.01019566 0 0 Z " transform="translate(292.0939893722534,470.86577892303467)" style="fill: #000000;"/><path d="M0 0 C0.99508831 -0.00551503 0.99508831 -0.00551503 2.01027942 -0.01114148 C4.23177539 -0.02214882 6.45322453 -0.02601712 8.67474365 -0.02983093 C10.26824593 -0.03609778 11.86174674 -0.04274478 13.45524597 -0.04974365 C18.68693021 -0.07075902 23.91861466 -0.08114326 29.15032959 -0.09111023 C30.95301071 -0.09515864 32.75569168 -0.09927559 34.5583725 -0.10346031 C43.02766489 -0.12250595 51.4969486 -0.13673865 59.96625829 -0.14507228 C69.73572796 -0.15484459 79.50497105 -0.18116655 89.2743609 -0.22157317 C96.83034463 -0.25175048 104.38626346 -0.26654266 111.94230628 -0.26985329 C116.45303644 -0.27220181 120.96352436 -0.28113644 125.47418976 -0.30631447 C129.71943819 -0.32962874 133.96428546 -0.33381505 138.20958138 -0.32355309 C139.76396839 -0.32305844 141.31837538 -0.32935791 142.87270164 -0.34310913 C150.91206442 -0.41023034 157.50384726 -0.4489039 164.38470459 4.14717102 C166.44329834 6.18232727 166.44329834 6.18232727 167.82220459 8.20967102 C168.29529053 8.88127258 168.76837646 9.55287415 169.25579834 10.24482727 C172.33289403 15.43010617 171.92150261 21.31799815 171.38470459 27.14717102 C169.67606406 32.5660024 165.87395221 35.94056558 161.38470459 39.14717102 C157.64094227 40.95225626 154.68445152 41.39521424 150.54441833 41.38768005 C148.79237846 41.39180405 148.79237846 41.39180405 147.00494385 41.39601135 C145.73251831 41.3888208 144.46009277 41.38163025 143.14910889 41.3742218 C141.78878284 41.37365735 140.42845619 41.37397492 139.06813049 41.37510681 C135.38254011 41.37567999 131.69708024 41.3639314 128.01152015 41.3499589 C124.15714669 41.33744568 120.30277015 41.33628057 116.44837952 41.33390808 C109.15282795 41.32769505 101.85733642 41.31128663 94.56181127 41.2912091 C86.2547276 41.2688446 77.94764104 41.25785528 69.64053476 41.24781823 C52.55521737 41.22692024 35.46998265 41.19024621 18.38470459 41.14717102 C18.71470459 55.00717102 19.04470459 68.86717102 19.38470459 83.14717102 C22.57009651 83.943519 24.68930527 84.27191449 27.87402344 84.27174377 C28.7682753 84.27430679 29.66252716 84.27686981 30.58387756 84.2795105 C31.55745712 84.27741074 32.53103668 84.27531097 33.53411865 84.27314758 C35.08116737 84.27594978 35.08116737 84.27594978 36.6594696 84.27880859 C38.89933268 84.28281167 41.13919984 84.28488735 43.37906647 84.28527069 C48.14376731 84.28868777 52.90833188 84.3100524 57.67298508 84.33050156 C66.54386945 84.36851386 75.41460837 84.3997864 84.2855835 84.3976593 C90.45658736 84.39687175 96.6270924 84.42025542 102.797966 84.45954132 C105.14700833 84.46999609 107.49610827 84.47152926 109.84516144 84.46389008 C113.13655947 84.4542548 116.42645033 84.47547825 119.7177124 84.50361633 C121.16593636 84.4883213 121.16593636 84.4883213 122.64341736 84.47271729 C129.10317288 84.57146372 133.37449925 86.00825816 138.38470459 90.14717102 C142.78560646 95.01132572 144.10779896 100.70688206 144.38470459 107.14717102 C143.50342967 112.59428932 141.42395557 117.32625793 137.38470459 121.14717102 C131.23796486 125.28430604 125.63613336 125.72958287 118.37884521 125.69306946 C117.30478424 125.70340714 116.23072327 125.71374481 115.12411499 125.72439575 C111.59624039 125.75374508 108.0689415 125.75532132 104.54095459 125.75654602 C102.08615022 125.7715329 99.63135591 125.78826111 97.17657471 125.80665588 C90.73223397 125.85028408 84.28802925 125.87031869 77.84356689 125.88539124 C71.26084363 125.90497844 64.67826691 125.94694675 58.09564209 125.98701477 C45.19204598 126.06226801 32.28847243 126.11334988 19.38470459 126.14717102 C19.37883835 126.94595169 19.37297211 127.74473236 19.3669281 128.56771851 C19.30889612 136.11512792 19.23675986 143.66221117 19.14898968 151.20932865 C19.1043636 155.08889733 19.0650908 158.96836289 19.03826904 162.84809875 C19.012158 166.59601455 18.9717016 170.34353183 18.92151833 174.09119987 C18.90490207 175.51719116 18.89335525 176.9432513 18.88709068 178.36932564 C18.83711995 188.70393618 18.19987322 195.82731799 11.04095459 203.63545227 C6.33196213 207.9335185 1.00700432 208.71431471 -5.12701416 208.49092102 C-11.80259257 207.56870611 -16.12355762 204.15139824 -20.38873291 199.12373352 C-23.40289406 194.26651842 -23.86683804 189.52937913 -23.87599182 183.91172791 C-23.87981737 183.20579132 -23.88364292 182.49985474 -23.88758439 181.77252614 C-23.89786151 179.41897805 -23.89393238 177.06567633 -23.88995361 174.71211243 C-23.89430304 173.01979345 -23.89948696 171.32747644 -23.90544128 169.63516235 C-23.91881824 165.04626164 -23.91941136 160.45744335 -23.91687799 155.86852694 C-23.91580731 152.03411173 -23.92069415 148.19971313 -23.92548341 144.36530149 C-23.93657425 135.31699273 -23.93701848 126.26872548 -23.93096924 117.22041321 C-23.92493004 107.89435304 -23.93724006 98.56844377 -23.95853931 89.24240935 C-23.97616864 81.22778254 -23.98215453 73.21320369 -23.97890157 65.19855821 C-23.97709057 60.41516859 -23.97970653 55.63188658 -23.9936161 50.84851456 C-24.00621135 46.34883758 -24.0042343 41.84939537 -23.99120522 37.34972191 C-23.98884352 35.70181765 -23.99155951 34.05389678 -23.99982834 32.40601158 C-24.05150603 21.30340389 -23.78535006 12.51175078 -15.61529541 4.14717102 C-10.42895625 0.47878479 -6.27203967 0.02256296 0 0 Z " transform="translate(296.61529541015625,224.8528289794922)" style="fill: #000000;"/><path d="M0 0 C1.62214388 -0.00461673 3.24428356 -0.0109748 4.86641461 -0.01890898 C9.29513838 -0.0355197 13.72351486 -0.02739376 18.15223944 -0.0149641 C22.93966623 -0.00588185 27.72703497 -0.01989909 32.51445007 -0.03088379 C41.88190842 -0.04864019 51.24923834 -0.04484174 60.61670166 -0.03323323 C68.23263828 -0.0241873 75.84853899 -0.02297992 83.46447945 -0.02732849 C84.54981714 -0.02794142 85.63515483 -0.02855436 86.75338154 -0.02918586 C88.95846963 -0.03046481 91.16355772 -0.03176166 93.36864579 -0.03307623 C114.0305097 -0.04447374 134.69230253 -0.03138161 155.35415477 -0.00987476 C173.06793097 0.00799292 190.78160229 0.0048932 208.49537659 -0.0135498 C229.08345756 -0.03497551 249.67147628 -0.04337252 270.25956684 -0.03110075 C272.4566959 -0.0298266 274.65382498 -0.02856912 276.85095406 -0.02732849 C278.47234339 -0.02640284 278.47234339 -0.02640284 280.12648807 -0.02545848 C287.72931375 -0.0220105 295.33209981 -0.02782208 302.93491936 -0.0372467 C312.2059942 -0.04848707 321.47693364 -0.04538393 330.74799304 -0.02412373 C335.47470965 -0.01364035 340.20120084 -0.00944503 344.92791557 -0.02272034 C349.26134789 -0.03470663 353.59434746 -0.02797976 357.92774094 -0.00681013 C359.48883713 -0.00237031 361.04997046 -0.00455083 362.61104243 -0.01431328 C382.15401604 -0.12707981 395.50350899 5.97608103 409.2659719 19.50369155 C411.1997841 21.42959286 413.12463077 23.36419054 415.04933167 25.29919434 C416.45423867 26.69703139 417.85998354 28.09402675 419.26649475 29.49024963 C423.0608957 33.26226474 426.84259515 37.04677108 430.62136316 40.83443952 C433.78820733 44.00641718 436.96126666 47.17214099 440.1343106 50.33791488 C447.62642606 57.81306464 455.10825869 65.29839519 462.58351135 72.79040527 C470.269701 80.49350324 477.97210878 88.18009913 485.68289673 95.85856777 C492.32590343 102.4747937 498.95905976 109.10078208 505.58445632 115.73464245 C509.53127192 119.68636365 513.48148654 123.63451522 517.44105911 127.57345772 C521.16741354 131.28132224 524.88119379 135.00135606 528.58607483 138.73067284 C529.93895993 140.08852423 531.29601279 141.44223944 532.65775681 142.79120636 C548.41493523 158.41231221 558.02134055 172.81329428 558.25248826 195.7712698 C558.25574227 198.60746583 558.24130213 201.44326493 558.22633362 204.27941895 C558.23012379 206.34069181 558.23562955 208.40196212 558.2427063 210.46322632 C558.25658001 216.0205841 558.24555136 221.57762952 558.22899508 227.13496971 C558.21507743 232.96441223 558.22161172 238.79383785 558.22512817 244.62329102 C558.22782328 254.40097046 558.21440906 264.17852664 558.19117737 273.95617676 C558.16451252 285.25694369 558.16284204 296.5575054 558.17456573 307.85829306 C558.18534226 318.74741838 558.17916125 329.63646956 558.16501045 340.52558899 C558.15925558 345.15385188 558.15932927 349.78206042 558.16407585 354.4103241 C558.1688467 359.85400292 558.15873938 365.29745668 558.1371212 370.74109268 C558.13155686 372.73814764 558.13108479 374.73522425 558.13607407 376.73228073 C558.14202981 379.45783804 558.12951664 382.18270775 558.11230469 384.90820312 C558.11831473 385.69827554 558.12432478 386.48834796 558.13051695 387.30236197 C558.05689139 393.71258923 556.50445411 397.64335131 552.09962463 402.25793457 C547.69698072 405.60611809 542.84872913 406.91520232 537.35743713 406.19934082 C531.51500021 404.61578468 527.95721802 401.58772418 524.72462463 396.50793457 C523.52891203 392.92079677 523.58948776 389.66653657 523.60437012 385.93403625 C523.60351569 385.15559803 523.60266127 384.37715981 523.60178095 383.57513255 C523.60012981 380.9587159 523.60564158 378.34236292 523.61109924 375.72595215 C523.61138122 373.85361228 523.61122318 371.9812723 523.61065674 370.1089325 C523.61036917 365.01835376 523.61625935 359.92779847 523.6232307 354.8372252 C523.62947099 349.52008065 523.63006857 344.20293561 523.6312561 338.88578796 C523.63436742 328.81358157 523.64257813 318.74138601 523.65260559 308.66918439 C523.66377291 297.20379633 523.66927874 285.73840776 523.67430103 274.27301562 C523.6847609 250.68464926 523.7023565 227.09629252 523.72462463 203.50793457 C523.17392933 203.51069995 522.62323402 203.51346533 522.05585098 203.51631451 C508.60755582 203.58279448 495.15928975 203.63212963 481.71086502 203.66337109 C475.20708824 203.67898997 468.70343055 203.70015922 462.19972229 203.73425293 C455.9167998 203.76698105 449.63399149 203.78481597 443.3509903 203.7925663 C440.96055557 203.79808569 438.57012669 203.80886343 436.17974091 203.82512474 C432.81728886 203.84707764 429.4553015 203.84989403 426.0927887 203.84851074 C425.11670151 203.85929657 424.14061432 203.8700824 423.13494873 203.88119507 C405.51680568 203.80337365 391.61400456 196.43186432 378.83009338 184.78137207 C374.83204713 180.68405153 372.11789554 175.97746612 369.47462463 170.94543457 C368.98034973 170.03664551 368.98034973 170.03664551 368.47608948 169.10949707 C361.14098491 154.37175245 362.32527357 137.51684859 362.43165588 121.54309082 C362.43726154 119.05346433 362.44152705 116.5638345 362.44451904 114.07420349 C362.45589143 107.56904727 362.48529216 101.06409678 362.51863098 94.559021 C362.54949701 87.90204275 362.56305949 81.24504379 362.57814026 74.5880127 C362.61016994 61.56123298 362.66068388 48.53459479 362.72462463 35.50793457 C315.16430847 35.56678049 267.6040394 35.64130052 220.04378219 35.73692085 C214.43226961 35.74818938 208.82075678 35.75932777 203.20924377 35.77038574 C201.53347622 35.77369127 201.53347622 35.77369127 199.82385477 35.77706357 C181.72096577 35.81246179 163.61807682 35.83731166 145.51516602 35.85828159 C126.94788036 35.88002355 108.38063972 35.91305865 89.81339234 35.95663613 C78.35108996 35.98318053 66.8888437 36.00085535 55.42651208 36.00728061 C47.57251508 36.01252597 39.71858876 36.02871419 31.8646296 36.05360023 C27.32940393 36.06764449 22.79430488 36.07677515 18.25905609 36.07294273 C14.10942071 36.0695424 9.96005619 36.07983992 5.81047633 36.10117009 C4.30704186 36.10645561 2.80357939 36.10665449 1.30014507 36.1013302 C-0.7396525 36.09484067 -2.77948465 36.10848006 -4.81923962 36.12317371 C-5.95346424 36.12507232 -7.08768887 36.12697092 -8.25628394 36.12892705 C-11.67887749 36.558589 -13.51986725 37.46383317 -16.27537537 39.50793457 C-20.02575829 44.40426783 -21.39850219 47.9986862 -21.40417653 54.07242316 C-21.40744873 54.99075965 -21.41072092 55.90909613 -21.41409227 56.855261 C-21.41260865 57.86254402 -21.41112503 58.86982704 -21.40959644 59.90763378 C-21.41194867 60.98335845 -21.4143009 62.05908313 -21.41672441 63.16740552 C-21.42342649 66.80275035 -21.42295583 70.43805953 -21.42254639 74.07341003 C-21.42584425 76.69382161 -21.42956965 79.31423268 -21.43368787 81.93464309 C-21.4430197 88.40086606 -21.44693689 94.86708219 -21.44920683 101.33331106 C-21.45216736 109.07626529 -21.46086385 116.81921042 -21.46962111 124.56215988 C-21.49047193 143.27777129 -21.50093604 161.99338428 -21.50975072 180.7090046 C-21.51395604 189.56062272 -21.51917816 198.41224016 -21.52443525 207.2638577 C-21.54232536 237.55672321 -21.55732223 267.84958891 -21.56475544 298.14245892 C-21.5652302 300.04447529 -21.56570609 301.94649167 -21.5661831 303.84850805 C-21.56641948 304.79174703 -21.56665585 305.73498602 -21.56689939 306.706808 C-21.56810061 311.48581308 -21.56931605 316.26481816 -21.57054138 321.04382324 C-21.57078153 321.99223482 -21.57102168 322.94064639 -21.57126911 323.91779772 C-21.57916401 354.67532676 -21.60259982 385.43281726 -21.63509733 416.19032948 C-21.66938332 448.69984103 -21.6891054 481.20933003 -21.69239968 513.71885997 C-21.69281723 517.2865857 -21.69329679 520.85431141 -21.69382286 524.42203712 C-21.69394605 525.30052802 -21.69406924 526.17901892 -21.69419617 527.08413075 C-21.69652964 541.23049461 -21.71219773 555.37681376 -21.73266471 569.52316168 C-21.75290514 583.73827586 -21.75840844 597.95333625 -21.74889407 612.16846218 C-21.74367229 620.61610666 -21.7495885 629.06357225 -21.77142874 637.51119104 C-21.78491522 643.15349444 -21.78387896 648.79567441 -21.77102679 654.43797897 C-21.7641157 657.65327295 -21.76571552 660.86815536 -21.78058688 664.0834324 C-21.79562579 667.54894038 -21.78608751 671.0135445 -21.77035999 674.47902966 C-21.7805822 675.47460684 -21.79080441 676.47018403 -21.80133638 677.49593022 C-21.73791567 683.88131477 -20.61846952 689.0002309 -17.27537537 694.50793457 C-13.28502802 698.40095638 -10.11699719 699.63219336 -4.61818409 699.63542652 C-3.65572736 699.63843417 -2.69327062 699.64144182 -1.70164853 699.64454061 C-0.11208916 699.64191505 -0.11208916 699.64191505 1.50958252 699.63923645 C2.63356172 699.64135216 3.75754092 699.64346788 4.91558009 699.6456477 C8.70179144 699.65166444 12.48796962 699.65064636 16.27418518 699.64978027 C18.98082645 699.65223779 21.68746471 699.65625731 24.394104 699.66030884 C30.23319173 699.66842547 36.07227509 699.67336697 41.91136742 699.6765995 C51.14258031 699.68209521 60.37375623 699.69899221 69.60494995 699.71794128 C72.76299184 699.72429824 75.92103383 699.73060666 79.07907581 699.73691845 C79.86834826 699.73850221 80.65762071 699.74008597 81.4708105 699.74171773 C90.45767492 699.75965863 99.44454196 699.77588247 108.43141174 699.79089355 C109.25302643 699.79226943 110.07464112 699.7936453 110.92115323 699.79506286 C124.23013417 699.81698424 137.5391056 699.82774686 150.8481014 699.8352643 C164.51238763 699.84333816 178.17659236 699.86663801 191.84083205 699.90321797 C200.26849983 699.92523375 208.69599998 699.93491046 217.12369505 699.92871764 C222.90186432 699.92554059 228.67989057 699.9368893 234.45801558 699.95961205 C237.79076848 699.97226738 241.12293677 699.97628327 244.45574188 699.96719551 C248.07240122 699.95832967 251.68816219 699.97396623 255.30474854 699.99568176 C256.87757749 699.98301796 256.87757749 699.98301796 258.48218077 699.97009832 C264.724906 700.03941107 269.53269411 700.88456133 274.72462463 704.50793457 C279.29462499 709.31229392 280.15473202 713.42057863 280.06056213 719.87121582 C279.51080567 724.18616479 277.87051585 727.50623004 274.72462463 730.50793457 C268.091342 734.56726905 262.92959947 735.07912087 255.24468994 735.00914001 C254.10630466 735.01467441 252.96791937 735.02020881 251.79503757 735.02591091 C247.989686 735.03949765 244.18499253 735.02455787 240.37965393 735.00964355 C237.64757688 735.01122011 234.91552355 735.01877593 232.18345642 735.02601624 C225.53794119 735.03993022 218.89261633 735.03240556 212.24711021 735.01734065 C204.50070017 735.00045117 196.75433717 735.00369467 189.0079144 735.00743473 C175.17980353 735.01331025 161.35178376 734.99915548 147.5236969 734.9744873 C134.12131838 734.95058141 120.71906166 734.94347802 107.31666565 734.95397949 C92.70923474 734.96540473 78.10186014 734.96729786 63.49442989 734.9528814 C61.93480194 734.95135563 60.37517399 734.94983528 58.81554604 734.94832039 C58.04826701 734.94756257 57.28098798 734.94680476 56.49045807 734.94602398 C51.09789538 734.94129246 45.70535793 734.94312464 40.31279564 734.94738579 C33.73370422 734.9523273 27.15472767 734.94626265 20.57566246 734.92649149 C17.22233172 734.91666061 13.86932015 734.91309153 10.51595879 734.919384 C6.87229087 734.92536251 3.22913238 734.9127815 -0.41448975 734.89561462 C-1.98660429 734.90462969 -1.98660429 734.90462969 -3.59047872 734.91382688 C-18.08484567 734.79011407 -30.45026704 729.95627448 -40.95506287 719.94543457 C-52.59489097 707.71773637 -56.4356447 693.26288533 -56.40680313 676.76119804 C-56.40885576 675.67224586 -56.4109084 674.58329367 -56.41302323 673.46134293 C-56.41870157 669.79301414 -56.41723495 666.1247228 -56.41581726 662.45639038 C-56.41840042 659.8075163 -56.4213746 657.15864525 -56.42482066 654.50977242 C-56.4323977 647.98081465 -56.43459357 641.45186507 -56.43514972 634.92290336 C-56.43606365 627.10310991 -56.44273204 619.28332401 -56.44949654 611.46353381 C-56.46555569 592.56360273 -56.47145965 573.66367246 -56.47624529 554.76373578 C-56.47858124 545.822956 -56.48218389 536.88217686 -56.48594067 527.94139758 C-56.49877587 497.33644047 -56.50949526 466.73148372 -56.51294327 436.12652397 C-56.5131649 434.20536785 -56.51338668 432.28421172 -56.51360862 430.36305559 C-56.51382926 428.4372602 -56.51404974 426.5114648 -56.51427007 424.5856694 C-56.51471262 420.72219268 -56.51515974 416.85871597 -56.51560974 412.99523926 C-56.51571913 412.03732183 -56.51582852 411.07940441 -56.51594123 410.09245918 C-56.51957211 379.02976061 -56.53549351 347.96708537 -56.55880011 316.90439573 C-56.58339599 284.06331743 -56.59711599 251.22225246 -56.59831119 218.38116467 C-56.59848264 214.77606336 -56.59869807 211.17096205 -56.59894562 207.56586075 C-56.59900139 206.67818307 -56.59905715 205.79050539 -56.59911461 204.87592838 C-56.60026524 190.59080149 -56.61128824 176.30569855 -56.62583267 162.02057975 C-56.64019884 147.66227672 -56.64343397 133.3040044 -56.6353927 118.94569616 C-56.63093708 110.41649702 -56.63479436 101.88739699 -56.6506312 93.35821087 C-56.66038618 87.65778406 -56.65919801 81.95742661 -56.64919497 76.25700042 C-56.64380667 73.011059 -56.64474525 69.76534541 -56.65570369 66.5194125 C-56.66678251 63.01600964 -56.65931638 59.51310703 -56.64731216 56.00971794 C-56.65490736 55.01136307 -56.66250255 54.0130082 -56.6703279 52.98440015 C-56.55716424 37.66892937 -51.33597841 23.79039083 -40.68553162 12.69543457 C-28.98416437 2.07506884 -15.25603204 -0.09525743 0 0 Z " transform="translate(232.27537536621094,115.4920654296875)" style="fill: #000000;"/></svg>