<svg xmlns="http://www.w3.org/2000/svg" width="548.583" height="99.008" viewBox="0 0 514.29635 92.820314"><defs><clipPath id="a"><path d="M0 500h500V0H0v500z"/></clipPath></defs><g clip-path="url(#a)" transform="matrix(1.25 0 0 -1.25 -55.352 359.06)"><path d="M70.139 269.017c4.618 0 8.853-1.667 12.139-4.43l4.47 5.33a25.729 25.729 0 0 1-16.61 6.06c-14.257 0-25.856-11.598-25.856-25.856 0-14.257 11.599-25.856 25.857-25.856 6.32 0 12.114 2.282 16.61 6.06l-4.471 5.33a18.813 18.813 0 0 0-12.14-4.428c-10.418 0-18.895 8.476-18.895 18.894 0 10.419 8.477 18.896 18.896 18.896m143.135-36.3h-10.442v34.808h10.442c9.597 0 17.404-7.808 17.404-17.404s-7.807-17.404-17.404-17.404m0 41.769h-13.923a3.48 3.48 0 0 1-3.48-3.48v-41.77a3.48 3.48 0 0 1 3.48-3.48h13.923c13.436 0 24.365 10.93 24.365 24.365 0 13.435-10.929 24.365-24.365 24.365m43.213-3.481v-41.769a3.481 3.481 0 0 1 3.48-3.48h29.007v6.96H263.45v13.924h16.243v6.961H263.45v13.923h25.525v6.961h-29.007a3.48 3.48 0 0 1-3.48-3.48m105.362 0v-41.769a3.481 3.481 0 0 1 3.48-3.48h29.007v6.96h-25.525v13.924h16.244v6.961h-16.244v13.923h25.525v6.961H365.33a3.48 3.48 0 0 1-3.48-3.48m-33.125-17.403h-11.603v13.923h11.603a6.969 6.969 0 0 0 6.96-6.962 6.969 6.969 0 0 0-6.96-6.961m0 20.884H313.64a3.48 3.48 0 0 1-3.48-3.48v-45.25h6.96v20.885h11.604c7.677 0 13.923 6.246 13.923 13.922 0 7.678-6.246 13.923-13.923 13.923m120.033 0V238.85l-28.652 34.384a3.48 3.48 0 1 1-6.156-2.228v-45.25h6.962v35.635l28.653-34.383a3.48 3.48 0 0 1 6.155 2.228v45.25h-6.962zm-292.71-20.526l-13.834 9.251v14.884l25.002-16.667-11.168-7.469zm5.739-3.84l7.984 5.34v-10.679l-7.984 5.34zm-19.573-13.09l13.834 9.251 11.168-7.469-25.002-16.667v14.884zm-20.215 9.251l13.834-9.252v-14.884l-25.001 16.667 11.167 7.47zm-5.74 3.84l-7.982-5.34v10.68l7.983-5.34zm19.574 13.09l-13.834-9.252-11.167 7.47 25 16.667v-14.884zm3.19-20.639l-11.285 7.548 11.286 7.55 11.286-7.55-11.286-7.548zm37.075 19.415c-.017.091-.032.18-.056.268-.015.053-.033.103-.05.155-.025.078-.05.156-.082.233-.022.052-.047.104-.071.155a2.825 2.825 0 0 1-.11.212c-.028.051-.06.1-.09.148a3.202 3.202 0 0 1-.53.63 3.807 3.807 0 0 1-.181.15c-.048.037-.095.075-.145.11l-.052.04-33.938 22.624a3.188 3.188 0 0 1-3.54 0l-33.936-22.625c-.02-.012-.035-.027-.053-.04-.05-.034-.097-.072-.145-.109a2.496 2.496 0 0 1-.307-.276 2.9 2.9 0 0 1-.404-.504c-.031-.049-.062-.097-.09-.148a2.234 2.234 0 0 1-.11-.212c-.023-.05-.05-.103-.07-.155a3.407 3.407 0 0 1-.083-.233c-.017-.052-.035-.102-.05-.155a3.348 3.348 0 0 1-.055-.268c-.008-.046-.02-.09-.026-.137a3.221 3.221 0 0 1-.028-.417v-22.625c0-.14.01-.279.028-.417.007-.047.018-.092.026-.138.016-.089.033-.179.056-.267.014-.053.032-.104.049-.155a3.25 3.25 0 0 1 .083-.234c.02-.053.047-.103.07-.154a2.377 2.377 0 0 1 .2-.359 3.224 3.224 0 0 1 .244-.333c.05-.059.104-.117.16-.172a3.3 3.3 0 0 1 .307-.277c.048-.037.095-.074.145-.109.018-.013.034-.027.053-.039l33.937-22.625a3.181 3.181 0 0 1 3.539 0l33.938 22.625a.654.654 0 0 1 .052.04c.05.034.097.071.145.108.062.05.123.1.18.153.044.04.086.082.128.124a2.865 2.865 0 0 1 .403.505c.03.047.062.096.09.146.04.07.076.141.11.213.024.051.049.101.07.154.033.077.058.155.083.234.017.051.035.102.05.155.024.088.039.178.056.267.008.046.019.091.025.138.018.138.029.276.029.417v22.625c0 .14-.011.28-.03.417-.005.046-.016.091-.024.137" fill="#e3e3e3"/></g></svg>