<svg height="40" viewBox="0 0 40 40" width="40" xmlns="http://www.w3.org/2000/svg"><path d="M20 2c9.925 0 18 8.075 18 18s-8.075 18-18 18S2 29.925 2 20 10.075 2 20 2m0-2C8.953 0 0 8.954 0 20c0 11.047 8.953 20 20 20 11.045 0 20-8.953 20-20C40 8.954 31.045 0 20 0z" fill="#959595"/><path d="M25.221 30.41c-1.947.939-3.76 1.275-6.078 1.275-5.541 0-10.342-3.995-10.342-10.546 0-6.85 4.902-12.827 12.424-12.827 5.912 0 9.975 4.097 9.975 9.705 0 4.969-2.787 7.991-6.18 7.991-1.477 0-2.652-.838-2.719-2.754h-.102c-1.107 1.848-2.619 2.754-4.5 2.754-2.082 0-3.729-1.611-3.729-4.299 0-4.128 3.158-7.89 7.926-7.89 1.479 0 2.957.336 3.83.773l-1.076 6.145c-.402 2.25-.102 3.291.908 3.291 1.578.068 3.424-1.982 3.424-5.843 0-4.634-2.855-8.025-8.059-8.025-5.307 0-9.842 4.13-9.842 10.746 0 5.607 3.629 8.898 8.598 8.898 1.814 0 3.627-.367 4.971-1.109l.571 1.715zM22.77 16.272a4.48 4.48 0 0 0-1.342-.202c-2.553 0-4.568 2.484-4.568 5.339 0 1.377.639 2.316 1.881 2.316 1.578 0 3.088-2.016 3.426-3.995l.603-3.458z" fill="#959595"/></svg>