<svg xmlns="http://www.w3.org/2000/svg" viewBox="0 0 67 67" height="67" width="67"><title>mark-github</title><path d="M33.5.826C14.991.826 0 15.818 0 34.326 0 49.15 9.59 61.671 22.906 66.11c1.675.293 2.303-.712 2.303-1.592 0-.795-.042-3.433-.042-6.24-8.417 1.55-10.595-2.05-11.265-3.935-.376-.963-2.01-3.937-3.433-4.732-1.173-.628-2.848-2.178-.042-2.22 2.638-.041 4.522 2.43 5.15 3.434 3.016 5.067 7.831 3.643 9.757 2.764.294-2.178 1.173-3.643 2.136-4.48-7.454-.838-15.242-3.728-15.242-16.541 0-3.643 1.298-6.658 3.433-9.003-.335-.838-1.507-4.272.335-8.878 0 0 2.806-.88 9.213 3.434 2.68-.754 5.527-1.13 8.375-1.13 2.847 0 5.695.376 8.375 1.13 6.407-4.355 9.212-3.434 9.212-3.434 1.843 4.606.67 8.04.335 8.878 2.136 2.345 3.434 5.318 3.434 9.003 0 12.855-7.83 15.703-15.284 16.54 1.214 1.047 2.26 3.057 2.26 6.198 0 4.48-.041 8.082-.041 9.212 0 .88.628 1.927 2.303 1.592A33.554 33.554 0 0 0 67 34.326C67 15.818 52.009.826 33.5.826z" fill="#e3e3e3" fill-rule="evenodd"/></svg>