<svg xmlns="http://www.w3.org/2000/svg" width="18.93" height="38.4" viewBox="0 0 17.74733 35.999999"><path d="M8.874 3c3.151 0 5.916 2.595 5.916 5.553 0 3.075-2.535 7.412-5.916 12.841-3.381-5.43-5.916-9.766-5.916-12.841C2.958 5.595 5.722 3 8.874 3zm0-3C4.218 0 0 3.83 0 8.553 0 13.275 3.848 18.913 8.874 27c5.025-8.087 8.873-13.725 8.873-18.447C17.747 3.83 13.531 0 8.874 0zm0 12c-1.634 0-2.958-1.342-2.958-3 0-1.657 1.324-3 2.958-3 1.634 0 2.958 1.343 2.958 3 0 1.658-1.324 3-2.958 3zm5.916 21.75c0 1.242-2.648 2.25-5.916 2.25-3.269 0-5.916-1.008-5.916-2.25s2.647-2.25 5.916-2.25c3.268 0 5.916 1.008 5.916 2.25z" fill="#666"/></svg>