<svg xmlns="http://www.w3.org/2000/svg" width="12.8" height="19.2" viewBox="0 0 12.000001 18"><path d="M10.125 1.5c.207 0 .375.168.375.375v14.25a.375.375 0 0 1-.375.375h-8.25a.375.375 0 0 1-.375-.375V1.875c0-.207.168-.375.375-.375h8.25zM12 1.5A1.5 1.5 0 0 0 10.5 0h-9A1.5 1.5 0 0 0 0 1.5v15A1.5 1.5 0 0 0 1.5 18h9a1.5 1.5 0 0 0 1.5-1.5v-15zm-7.125.75h2.25a.375.375 0 0 1 0 .75h-2.25a.375.375 0 0 1 0-.75zM6 15.75a.75.75 0 1 1 0-1.5.75.75 0 0 1 0 1.5zm3.75-2.25h-7.5V3.75h7.5v9.75z" fill="#666"/></svg>