<svg xmlns="http://www.w3.org/2000/svg" width="60.472" height="60.472" viewBox="0 0 60 60"><path d="M29.667 6.342c13.081 0 23.724 10.642 23.724 23.724 0 13.081-10.643 23.724-23.724 23.724-13.082 0-23.724-10.643-23.724-23.724 0-13.082 10.642-23.724 23.724-23.724zm0-4.745c-15.722 0-28.469 12.747-28.469 28.469 0 15.722 12.747 28.469 28.469 28.469 15.722 0 28.469-12.747 28.469-28.47 0-15.721-12.747-28.468-28.47-28.468zm-2.372 37.958L13.06 32.592v-5.055l14.235-6.96v5.216l-8.636 4.273 8.636 4.26v5.23zm4.744-18.979v5.217l8.636 4.273-8.636 4.26v5.23l14.235-6.964v-5.055l-14.235-6.96z"/></svg>