<svg xmlns="http://www.w3.org/2000/svg" width="71.467" height="71.467" viewBox="0 0 66.999996 66.999854"><defs><clipPath id="a"><path d="M0 500h500V0H0v500z"/></clipPath></defs><path d="M16.347 30.521v5.958L20.8 33.5l-4.454-2.979zm15.373-4.325v-8.303l-13.948 9.298 6.23 4.168 7.718-5.163zm17.508.995L35.28 17.893v8.303l7.718 5.163 6.23-4.168zM17.772 39.81l13.948 9.297v-8.303l-7.717-5.162-6.231 4.167zm17.508.994v8.303l13.948-9.298-6.23-4.167-7.718 5.162zM33.5 29.289L27.204 33.5l6.296 4.212 6.296-4.212-6.296-4.21z" fill="#e3e3e3"/><g clip-path="url(#a)" transform="matrix(.14162 0 0 -.14162 -2.057 69.23)" fill="#e3e3e3"><path d="M397.331 207.732c0-.554-.039-1.1-.112-1.646-.027-.177-.07-.362-.1-.539-.065-.354-.127-.708-.22-1.054-.053-.208-.13-.407-.196-.608-.1-.307-.199-.616-.322-.924-.085-.207-.19-.407-.28-.607a15.376 15.376 0 0 0-.428-.839c-.113-.192-.239-.385-.359-.577a11.243 11.243 0 0 0-.53-.762 7.994 7.994 0 0 0-.434-.546c-.197-.23-.405-.46-.624-.676-.166-.17-.328-.339-.5-.493a11.872 11.872 0 0 0-.715-.6c-.186-.147-.37-.293-.567-.43-.072-.048-.137-.109-.21-.155l-133.688-89.128a12.556 12.556 0 0 0-13.946 0l-133.69 89.128c-.07.046-.136.107-.205.154a11.81 11.81 0 0 0-.57.431 11.81 11.81 0 0 0-.712.6c-.173.154-.338.323-.504.493-.219.215-.422.446-.627.676-.146.177-.292.354-.43.546-.185.246-.362.5-.528.762a15.18 15.18 0 0 0-.36.577c-.155.278-.293.554-.428.84-.096.2-.193.4-.28.606-.124.308-.228.617-.324.924-.069.201-.138.4-.196.608-.093.346-.154.7-.22 1.054-.03.177-.076.362-.1.54a12.381 12.381 0 0 0-.115 1.645v89.128c0 .554.042 1.1.115 1.64.024.183.07.36.1.545.066.354.127.708.22 1.054.058.208.127.408.196.608.096.308.2.615.323.916.088.207.185.415.281.615.135.285.273.562.427.831.115.2.234.392.361.585a13.552 13.552 0 0 0 .958 1.307c.205.231.408.462.627.678.166.17.331.338.504.492.227.208.466.408.712.601.185.146.373.292.57.43.07.047.134.108.204.154L244.1 396.444a12.567 12.567 0 0 0 13.946 0l133.687-89.128c.074-.046.14-.107.211-.154.197-.138.381-.284.567-.43.246-.193.488-.393.715-.6.172-.155.334-.324.5-.493.22-.216.427-.447.624-.678.153-.176.295-.36.434-.545.19-.247.361-.5.53-.762.12-.193.246-.385.36-.585.152-.269.291-.546.426-.83.091-.2.196-.409.281-.616.123-.3.222-.608.322-.916.066-.2.143-.4.196-.608.093-.346.155-.7.22-1.054.03-.185.073-.362.1-.546.073-.539.112-1.085.112-1.639v-89.128zm-146.26 281.113c-130.637 0-236.546-105.905-236.546-236.549 0-130.645 105.91-236.545 236.546-236.545 130.645 0 236.55 105.9 236.55 236.545 0 130.644-105.905 236.55-236.55 236.55"/><path d="M372.194 231.26v42.072l-31.445-21.035 31.445-21.036z"/></g></svg>