<svg xmlns="http://www.w3.org/2000/svg" width="67" viewBox="0 0 67 67" height="67"><circle r="246.455" cy="256" cx="255.999" transform="matrix(.13593 0 0 .13593 -1.297 -1.297)" fill="#dd4b39" fill-opacity=".941"/><path d="M50.899 16.101H16.1a4.363 4.363 0 0 0-4.35 4.35v26.098a4.363 4.363 0 0 0 4.35 4.35H50.9a4.364 4.364 0 0 0 4.35-4.35V20.451a4.364 4.364 0 0 0-4.35-4.35zm0 30.448h-4.35V27.411L33.5 35.675 20.451 27.41v19.138h-4.35V20.451h2.61l14.79 9.135 14.788-9.135h2.61v26.098z" fill="#fff"/></svg>