<svg xmlns="http://www.w3.org/2000/svg" width="67" viewBox="0 0 67 67" height="67"><path fill="#fff" fill-rule="evenodd" stroke="#fff" d="M13.45 12.698h42.458v41.655H13.45z"/><path d="M52.301 49.286V36.208c0-7.007-3.74-10.268-8.728-10.268-4.024 0-5.827 2.215-6.832 3.768v-3.232h-7.583c.1 2.14 0 22.81 0 22.81h7.583V36.547c0-.68.049-1.36.25-1.848.547-1.362 1.794-2.772 3.888-2.772 2.745 0 3.841 2.091 3.841 5.156v12.204h7.581zm-31.13-25.923c2.643 0 4.29-1.753 4.29-3.943-.049-2.237-1.647-3.94-4.24-3.94s-4.289 1.702-4.289 3.94c0 2.19 1.646 3.943 4.19 3.943h.049zM33.5 67C15 67 0 52 0 33.5 0 14.998 15 0 33.5 0S67 14.998 67 33.5C67 52 52 67 33.5 67zm-8.538-17.714v-22.81h-7.581v22.81h7.581z" clip-rule="evenodd" fill="#007ab9" fill-rule="evenodd"/></svg>