<svg xmlns="http://www.w3.org/2000/svg" viewBox="0 0 500 500"><path fill="#373e48" stroke="#373e48" stroke-width="1.875" d="M210.818 332.176c-.32-16.966-.14-51.623-.14-51.623-34.812 0-63.822.047-73.98.047 0-7.843-.026-58.642-.026-99.596 19.265-.004 199.123-.264 209.153-.282l4.05 3.672c5.404 4.901 7.69 5.986 12.621 5.986 3.639 0 4.398.42 6.16 3.408 1.996 3.384 2.06 3.407 9.08 3.238 3.912-.094 7.612-.711 8.282-1.383 2.38-2.38 9.397-1.374 16.647 2.386 11.643 6.04 18.84 11.645 19.821 15.434.571 2.21 1.744 3.667 3.481 4.328 2.46.936 2.58 1.292 1.969 5.9-.488 3.68-.281 5.21.832 6.134.815.677 2.27 3.36 3.234 5.962.965 2.602 2.582 5.94 3.597 7.42 1.014 1.479 1.843 4.01 1.843 5.625 0 2.027 1.099 4.002 3.543 6.373 2.452 2.377 3.543 4.344 3.543 6.384 1.75 12.602-1.016 11.096 2.988 15.34 2.327 2.479 2.639 4.654.914 6.38-.872.873-.622 2.414 1.008 6.207 1.194 2.775 1.915 5.709 1.604 6.52-.847 2.208 2.086 8.41 6.486 13.714 2.148 2.59 4.226 6.022 4.616 7.626.391 1.603 1.826 4.557 3.19 6.565 1.363 2.008 2.478 4.912 2.478 6.454v2.803c-85.652-.948-171.775-1.022-256.994-1.022z"/><path fill="none" stroke="#333" stroke-width="4.687" d="M212.066 468.746l-.233-136.055" stroke-dasharray="18.74999713 18.74999713"/><path fill="none" stroke="#333" stroke-width="4.687" d="M137.692 44.27l-.234 136.055" stroke-dasharray="18.74999623 18.74999623"/><path fill="none" stroke="#333" stroke-width="4.687" d="M.004 279.8l135.982-.233" stroke-dasharray="18.749996 18.749996"/></svg>