                <svg xmlns="http://www.w3.org/2000/svg" viewBox="0 0 500 500">
                <path fill="#373e48" stroke="#373e48" stroke-width="1.87499964" d="M210.81762 332.17629c-.31989-16.96649-.14025-51.62321-.14025-51.62321-34.81173 0-63.82184.0471-73.97854.0471 0-7.84281-.0268-58.64241-.0273-99.59584 19.2652-.004 199.12332-.26439 209.1534-.28201l4.04918 3.67187c5.40471 4.90115 7.69149 5.9853 12.62188 5.9853 3.63868 0 4.39804.42089 6.16044 3.40846 1.99522 3.38451 2.05904 3.407 9.08038 3.23792 3.91139-.0943 7.61099-.71115 8.28114-1.38239 2.37961-2.38019 9.39732-1.37442 16.64712 2.38599 11.64276 6.03972 18.83962 11.64405 19.82091 15.43348.57151 2.20965 1.74427 3.66752 3.4813 4.32788 2.46011.93611 2.57906 1.29241 1.96838 5.89967-.48811 3.67985-.28068 5.21028.83188 6.13406.81521.67704 2.2701 3.35983 3.23471 5.96208.96461 2.60224 2.58196 5.94103 3.59661 7.41994 1.01393 1.47891 1.84364 4.01003 1.84364 5.62537 0 2.02679 1.09806 4.00205 3.54294 6.3728 2.45142 2.37729 3.54295 4.34457 3.54295 6.38442 1.75008 12.60193-1.0161 11.09617 2.98739 15.33987 2.32739 2.47888 2.63925 4.65443.91384 6.38006-.87178.87298-.62156 2.41357 1.00885 6.20663 1.19307 2.77495 1.91471 5.70882 1.60357 6.52012-.84712 2.2082 2.08588 8.40975 6.48609 13.71437 2.14825 2.59063 4.22615 6.02159 4.61635 7.62531.39092 1.60372 1.8255 4.55791 3.18901 6.56583 1.36351 2.0072 2.47897 4.91132 2.47897 6.45336v2.80325c-85.65203-.94803-171.77533-1.02169-256.9948-1.02169z"></path>
                <path fill="none" stroke="#333" stroke-width="4.68749905" d="M212.06576 468.7459l-.23305-136.05476" stroke-dasharray="18.74999713 18.74999713"></path>
                <path fill="none" stroke="#333" stroke-width="4.68749857" d="M137.69155 44.270314l-.23305 136.054766" stroke-dasharray="18.74999623 18.74999623"></path>
                <path fill="none" stroke="#333" stroke-width="4.68749857" d="M.0040168 279.80014l135.9823232-.23317" stroke-dasharray="18.749996 18.749996"></path>
                </svg>