<svg xmlns="http://www.w3.org/2000/svg" width="67" viewBox="0 0 67 67" height="67"><path fill="#fff" stroke="#fff" stroke-width="25.895" d="M26.131 30.685h15.523v12.198H26.131z"/><path d="M38.153 20.416c-2.924 1.064-4.772 3.809-4.563 6.813l.07 1.159-1.17-.142c-4.257-.544-7.978-2.388-11.137-5.488l-1.544-1.538-.398 1.136c-.842 2.531-.304 5.204 1.45 7.002.936.994.725 1.136-.888.544-.562-.189-1.053-.33-1.1-.26-.163.166.397 2.318.842 3.17.608 1.184 1.848 2.342 3.206 3.029l1.147.543-1.357.024c-1.31 0-1.357.023-1.216.521.468 1.538 2.316 3.17 4.375 3.88l1.45.497-1.263.757a13.122 13.122 0 0 1-6.27 1.75c-1.055.023-1.92.118-1.92.19 0 .235 2.855 1.56 4.515 2.08 4.984 1.538 10.905.875 15.35-1.75 3.16-1.87 6.317-5.584 7.792-9.18.796-1.915 1.592-5.417 1.592-7.096 0-1.088.07-1.23 1.38-2.531.772-.757 1.497-1.585 1.638-1.821.234-.45.21-.45-.983-.048-1.989.71-2.27.615-1.286-.45.725-.756 1.591-2.129 1.591-2.53 0-.071-.35.046-.75.26-.42.236-1.356.591-2.058.803l-1.263.404-1.147-.782c-.632-.426-1.52-.9-1.989-1.04-1.194-.331-3.02-.285-4.096.094zM33.5 67C15 67 0 52 0 33.5 0 14.998 15 0 33.5 0S67 14.998 67 33.5C67 52 52 67 33.5 67z" clip-rule="evenodd" fill="#598dca" fill-rule="evenodd"/></svg>