<svg xmlns="http://www.w3.org/2000/svg" width="24" height="24" viewBox="0 0 24 24"><path d="M19.45 13.29L17.5 12l1.95-1.29m-6.68 8.07v-3.61l3.36-2.24 2.7 1.81M12 13.83L9.26 12 12 10.17 14.74 12m-3.51 6.78l-6.06-4.04 2.7-1.81 3.36 2.24m-6.68-4.46L6.5 12l-1.95 1.29m6.68-8.07v3.61l-3.36 2.24-2.7-1.81m7.6-4.04l6.06 4.04-2.7 1.81-3.36-2.24m8.23.33v-.04c0-.02 0-.04-.03-.06 0-.01 0-.03-.01-.06 0 0-.01 0-.02-.04 0-.01-.01-.02-.02-.03 0-.02-.01-.04-.02-.05-.01-.02-.02-.03-.02-.04-.01-.02-.03-.03-.04-.05-.01-.01-.01-.02-.02-.03a.04.04 0 0 0-.04-.04l-.03-.03a.176.176 0 0 0-.05-.04l-.03-.03c-.01 0-.01 0-.01-.01l-8.23-5.48a.789.789 0 0 0-.86 0L3.34 8.61c0 .01 0 .01-.01.01l-.03.03c-.02.01-.03.02-.05.04l-.03.03-.04.04c-.01.01-.01.02-.02.03-.01.02-.03.03-.04.05 0 .01-.01.02-.02.04-.01.01-.02.03-.02.05-.01.01-.02.02-.02.03-.01.04-.01.04-.02.04-.01.03-.01.05-.01.06C3 9.08 3 9.1 3 9.12v5.76c0 .02 0 .04.03.06 0 .01 0 .03.01.06.01 0 .01 0 .02.04 0 .01.01.02.02.03 0 .02.01.04.02.05.01.02.02.03.02.04.01.02.03.03.04.05.01.01.01.02.02.03.02.01.03.03.04.04l.03.03c.02.02.03.03.05.04l.03.03c.01 0 .01 0 .01.01l8.23 5.48c.13.09.28.13.43.13.15 0 .3-.04.43-.13l8.23-5.48c0-.01 0-.01.01-.01l.03-.03c.02-.01.03-.02.05-.04l.03-.03c.01-.01.02-.03.04-.04.01-.01.01-.02.02-.03.01-.02.03-.03.04-.05 0-.01.01-.02.02-.04.01-.01.02-.03.02-.05.01-.01.02-.02.02-.03.01-.04.02-.04.02-.04.01-.03.01-.05.01-.06.03-.02.03-.04.03-.06v-.04-5.58-.1z" fill="#e3e3e3"/></svg>