<svg xmlns="http://www.w3.org/2000/svg" width="60.472" height="60.472" viewBox="0 0 60 60"><path d="M29.671 3.483c-15.57 0-28.193 12.624-28.193 28.194 0 15.57 12.623 28.193 28.193 28.193 15.57 0 28.194-12.623 28.194-28.193 0-15.57-12.624-28.194-28.194-28.194zm0 4.7c12.955 0 23.495 10.539 23.495 23.494S42.626 55.17 29.67 55.17c-12.955 0-23.494-10.54-23.494-23.494 0-12.955 10.54-23.495 23.494-23.495zM17.924 31.928v.308c.04-.057.068-.114.11-.17-.039-.044-.072-.093-.11-.138zm5.006.776c-.002.078-.005.154-.005.229.02-.06.037-.118.055-.183-.016-.017-.035-.03-.05-.046z"/><path d="M45.795 1.529c-.012.02-.025.036-.036.057-.002.014-.007.031-.007.046-.003-.007.078-.166.042-.103zm-19.041 16.09c-3.601 2.147-5.538 3.758-8.473 6.946-1.56-1.068-2.44-1.557-3.824-2.2l-1.192 1.048c2.374 2.108 3.664 3.49 5.594 5.667 3.136-5.376 5.311-8.134 8.28-10.614zm6.551 2.615v2.948h12.333v-2.948zm0 5.897v2.949h12.333v-2.95zm-6.25 6.231c-3.601 2.147-5.538 3.758-8.473 6.946-1.56-1.068-2.44-1.558-3.824-2.2l-1.192 1.048c2.371 2.108 3.661 3.493 5.594 5.672 3.136-5.375 5.311-8.134 8.28-10.613zm6.25 2.615v2.948h12.333v-2.948zm0 5.897v2.949h12.333v-2.949zM5.557 51.436c-.093.027-.184.059-.277.086.09.099.19.177.277.283v-.369z"/></svg>