<svg xmlns="http://www.w3.org/2000/svg" width="60.472" height="60.472" viewBox="0 0 60 60"><path d="M27.259 15.572V35.5h16.885v-4.982h-12.06V15.572h-4.825zM6.996 38.98l-4.34 2.256a30.247 30.247 0 0 1-1.572-6.127l4.82-.396c.24 1.47.61 2.894 1.092 4.267zm10.597 18.684l1.614-4.73a23.955 23.955 0 0 1-3.751-2.324l-3.409 3.594a28.614 28.614 0 0 0 5.546 3.46zM4.763 45.72a30.128 30.128 0 0 0 3.712 5.127l3.387-3.57a24.921 24.921 0 0 1-2.772-3.806l-4.327 2.25zM29.66.626c-6.73 0-12.902 2.402-17.814 6.382L6.581 1.57l-3.27 17.47 16.921-3.373-4.945-5.104c4.019-3.101 8.983-4.955 14.374-4.955 13.306 0 24.13 11.175 24.13 24.91s-10.824 24.91-24.13 24.91c-2.045 0-4.023-.295-5.922-.79l-1.604 4.718c2.403.665 4.919 1.053 7.526 1.053 15.991 0 28.957-13.384 28.957-29.891C58.618 14.01 45.652.626 29.66.626zM.725 30.142l4.86-.401c.065-1.751.302-3.453.695-5.1H1.272a31.203 31.203 0 0 0-.547 5.5z"/></svg>