<?xml version="1.0" encoding="UTF-8" standalone="no"?>
<!-- Created with Inkscape (http://www.inkscape.org/) -->

<svg
   xmlns:dc="http://purl.org/dc/elements/1.1/"
   xmlns:cc="http://creativecommons.org/ns#"
   xmlns:rdf="http://www.w3.org/1999/02/22-rdf-syntax-ns#"
   xmlns:svg="http://www.w3.org/2000/svg"
   xmlns="http://www.w3.org/2000/svg"
   xmlns:sodipodi="http://sodipodi.sourceforge.net/DTD/sodipodi-0.dtd"
   xmlns:inkscape="http://www.inkscape.org/namespaces/inkscape"
   width="16.00mm"
   height="16.00mm"
   viewBox="0 0 60 60"
   id="svg4656"
   version="1.1"
   inkscape:version="0.91 r13725"
   sodipodi:docname="history.svg">
  <defs
     id="defs4658" />
  <sodipodi:namedview
     id="base"
     pagecolor="#ffffff"
     bordercolor="#666666"
     borderopacity="1.0"
     inkscape:pageopacity="0.0"
     inkscape:pageshadow="2"
     inkscape:zoom="5.6"
     inkscape:cx="80.259308"
     inkscape:cy="15.789134"
     inkscape:document-units="px"
     inkscape:current-layer="layer1"
     showgrid="false"
     showborder="true"
     inkscape:window-width="1920"
     inkscape:window-height="1027"
     inkscape:window-x="-8"
     inkscape:window-y="-8"
     inkscape:window-maximized="1"
     fit-margin-top="0"
     fit-margin-left="0"
     fit-margin-right="0"
     fit-margin-bottom="0" />
  <metadata
     id="metadata4661">
    <rdf:RDF>
      <cc:Work
         rdf:about="">
        <dc:format>image/svg+xml</dc:format>
        <dc:type
           rdf:resource="http://purl.org/dc/dcmitype/StillImage" />
        <dc:title></dc:title>
      </cc:Work>
    </rdf:RDF>
  </metadata>
  <g
     inkscape:label="Layer 1"
     inkscape:groupmode="layer"
     id="layer1"
     transform="translate(-31.035722,-63.397923)">
    <path
       style="display:inline;opacity:1;fill:#000000"
       id="path5347"
       d="m 58.29464,78.970025 0,19.927659 16.885513,0 0,-4.981897 -12.06108,0 0,-14.945762 -4.824433,0 z m -20.262625,23.407555 -4.339576,2.25681 c -0.728488,-1.95291 -1.256764,-4.00299 -1.572767,-6.127766 l 4.81961,-0.39605 c 0.241233,1.46966 0.610291,2.894476 1.092733,4.267006 z m 10.596867,18.68468 1.613775,-4.73034 c -1.324303,-0.66007 -2.576243,-1.43724 -3.750999,-2.32406 l -3.40846,3.59446 c 1.70785,1.35759 3.56526,2.52086 5.545684,3.45994 z M 35.798304,109.11812 c 1.061374,1.8458 2.306079,3.56207 3.712402,5.12641 l 3.386751,-3.56958 c -1.039665,-1.17323 -1.963544,-2.44609 -2.771637,-3.80615 l -4.327516,2.24932 z M 60.697199,64.024237 c -6.73008,0 -12.902944,2.401302 -17.814215,6.381864 L 37.617117,64.968333 34.346151,82.437436 51.26785,79.06466 46.322805,73.96069 c 4.018749,-3.101247 8.983092,-4.95453 14.374394,-4.95453 13.305794,0 24.129404,11.174459 24.129404,24.909627 0,13.735153 -10.82361,24.909623 -24.129404,24.909623 -2.045556,0 -4.023572,-0.29407 -5.921989,-0.78966 l -1.604121,4.71788 c 2.402567,0.6651 4.918509,1.05369 7.52611,1.05369 15.990594,0 28.956254,-13.38393 28.956254,-29.891533 0,-16.507606 -12.96566,-29.89155 -28.956254,-29.89155 z m -28.936946,29.51541 4.860615,-0.401032 c 0.06513,-1.751164 0.301516,-3.452471 0.694719,-5.099015 l -5.007761,0 c -0.342547,1.778533 -0.523449,3.61938 -0.547573,5.500047 z"
       inkscape:connector-curvature="0"
       inkscape:export-filename="C:\Users\mscoh\Desktop\rect4496-7.png"
       inkscape:export-xdpi="144.9686"
       inkscape:export-ydpi="144.9686" />
  </g>
</svg>
