<?xml version="1.0" encoding="UTF-8" standalone="no"?>
<!-- Created with Inkscape (http://www.inkscape.org/) -->

<svg
   xmlns:dc="http://purl.org/dc/elements/1.1/"
   xmlns:cc="http://creativecommons.org/ns#"
   xmlns:rdf="http://www.w3.org/1999/02/22-rdf-syntax-ns#"
   xmlns:svg="http://www.w3.org/2000/svg"
   xmlns="http://www.w3.org/2000/svg"
   xmlns:sodipodi="http://sodipodi.sourceforge.net/DTD/sodipodi-0.dtd"
   xmlns:inkscape="http://www.inkscape.org/namespaces/inkscape"
   width="5.0799999mm"
   height="5.0799994mm"
   viewBox="0 0 18.000001 17.999998"
   id="svg6907"
   version="1.1"
   inkscape:version="0.91 r13725"
   sodipodi:docname="linkedin.svg">
  <defs
     id="defs6909" />
  <sodipodi:namedview
     id="base"
     pagecolor="#ffffff"
     bordercolor="#666666"
     borderopacity="1.0"
     inkscape:pageopacity="0.0"
     inkscape:pageshadow="2"
     inkscape:zoom="2.8"
     inkscape:cx="-153.49509"
     inkscape:cy="31.075604"
     inkscape:document-units="px"
     inkscape:current-layer="layer1"
     showgrid="false"
     fit-margin-top="0"
     fit-margin-left="0"
     fit-margin-right="0"
     fit-margin-bottom="0"
     showborder="false"
     inkscape:window-width="1920"
     inkscape:window-height="1027"
     inkscape:window-x="-8"
     inkscape:window-y="-8"
     inkscape:window-maximized="1" />
  <metadata
     id="metadata6912">
    <rdf:RDF>
      <cc:Work
         rdf:about="">
        <dc:format>image/svg+xml</dc:format>
        <dc:type
           rdf:resource="http://purl.org/dc/dcmitype/StillImage" />
        <dc:title></dc:title>
      </cc:Work>
    </rdf:RDF>
  </metadata>
  <g
     inkscape:label="Layer 1"
     inkscape:groupmode="layer"
     id="layer1"
     transform="translate(-704.0311,-555.86221)">
    <path
       id="path4863"
       d="m 704.0311,555.86221 0,18 18,0 0,-18 -18,0 z m 6.00006,14.25 -2.25006,0 0,-8.25001 2.25006,0 0,8.25001 z m -1.12506,-9.20099 c -0.7245,0 -1.31238,-0.5925 -1.31238,-1.32301 0,-0.73051 0.58788,-1.32301 1.31238,-1.32301 0.72456,0 1.31256,0.5925 1.31256,1.32301 0,0.73051 -0.58722,1.32301 -1.31256,1.32301 z m 10.12506,9.20099 -2.25006,0 0,-4.20299 c 0,-2.52602 -2.99994,-2.33476 -2.99994,0 l 0,4.20299 -2.25006,0 0,-8.25001 2.25006,0 0,1.32375 c 1.04778,-1.93949 5.25,-2.08273 5.25,1.85701 l 0,5.06925 z"
       inkscape:connector-curvature="0"
       style="display:inline;opacity:1;fill:#666666"
       inkscape:export-filename="C:\Users\mscoh\Desktop\rect4496-7.png"
       inkscape:export-xdpi="144.9686"
       inkscape:export-ydpi="144.9686" />
  </g>
</svg>
