<?xml version="1.0" encoding="UTF-8" standalone="no"?>
<!-- Created with Inkscape (http://www.inkscape.org/) -->

<svg
   xmlns:dc="http://purl.org/dc/elements/1.1/"
   xmlns:cc="http://creativecommons.org/ns#"
   xmlns:rdf="http://www.w3.org/1999/02/22-rdf-syntax-ns#"
   xmlns:svg="http://www.w3.org/2000/svg"
   xmlns="http://www.w3.org/2000/svg"
   xmlns:sodipodi="http://sodipodi.sourceforge.net/DTD/sodipodi-0.dtd"
   xmlns:inkscape="http://www.inkscape.org/namespaces/inkscape"
   width="5.0086908mm"
   height="10.16mm"
   viewBox="0 0 17.74733 35.999999"
   id="svg6907"
   version="1.1"
   inkscape:version="0.91 r13725"
   sodipodi:docname="location.svg">
  <defs
     id="defs6909" />
  <sodipodi:namedview
     id="base"
     pagecolor="#ffffff"
     bordercolor="#666666"
     borderopacity="1.0"
     inkscape:pageopacity="0.0"
     inkscape:pageshadow="2"
     inkscape:zoom="2.8"
     inkscape:cx="184.40966"
     inkscape:cy="7.5756024"
     inkscape:document-units="px"
     inkscape:current-layer="layer1"
     showgrid="false"
     fit-margin-top="0"
     fit-margin-left="0"
     fit-margin-right="0"
     fit-margin-bottom="0"
     showborder="false"
     inkscape:window-width="1920"
     inkscape:window-height="1027"
     inkscape:window-x="-8"
     inkscape:window-y="-8"
     inkscape:window-maximized="1" />
  <metadata
     id="metadata6912">
    <rdf:RDF>
      <cc:Work
         rdf:about="">
        <dc:format>image/svg+xml</dc:format>
        <dc:type
           rdf:resource="http://purl.org/dc/dcmitype/StillImage" />
        <dc:title></dc:title>
      </cc:Work>
    </rdf:RDF>
  </metadata>
  <g
     inkscape:label="Layer 1"
     inkscape:groupmode="layer"
     id="layer1"
     transform="translate(-366.12633,-514.3622)">
    <path
       id="path4819"
       d="m 375.00001,517.36222 c 3.15168,0 5.91583,2.59499 5.91583,5.55299 0,3.07501 -2.53498,7.41151 -5.91583,12.84149 -3.38087,-5.42998 -5.91573,-9.76648 -5.91573,-12.84149 0,-2.958 2.76415,-5.55299 5.91573,-5.55299 z m 0,-3.00002 c -4.65566,0 -8.87368,3.82951 -8.87368,8.55301 0,4.72199 3.84827,10.36049 8.87368,18.447 5.02551,-8.08651 8.87365,-13.72501 8.87365,-18.447 0,-4.7235 -4.21641,-8.55301 -8.87365,-8.55301 z m 0,12.00003 c -1.63412,0 -2.95784,-1.34252 -2.95784,-3 0,-1.65751 1.32372,-3.00002 2.95784,-3.00002 1.63422,0 2.95794,1.34251 2.95794,3.00002 0,1.65748 -1.32372,3 -2.95794,3 z m 5.91583,21.74998 c 0,1.242 -2.64732,2.24999 -5.91583,2.24999 -3.26842,0 -5.91573,-1.00799 -5.91573,-2.24999 0,-1.24201 2.64731,-2.25 5.91573,-2.25 3.26851,0 5.91583,1.00799 5.91583,2.25 z"
       inkscape:connector-curvature="0"
       style="display:inline;opacity:1;fill:#666666"
       inkscape:export-filename="C:\Users\mscoh\Desktop\rect4496-7.png"
       inkscape:export-xdpi="144.9686"
       inkscape:export-ydpi="144.9686" />
  </g>
</svg>
