<?xml version="1.0" encoding="UTF-8" standalone="no"?>
<!-- Created with Inkscape (http://www.inkscape.org/) -->

<svg
   xmlns:dc="http://purl.org/dc/elements/1.1/"
   xmlns:cc="http://creativecommons.org/ns#"
   xmlns:rdf="http://www.w3.org/1999/02/22-rdf-syntax-ns#"
   xmlns:svg="http://www.w3.org/2000/svg"
   xmlns="http://www.w3.org/2000/svg"
   xmlns:sodipodi="http://sodipodi.sourceforge.net/DTD/sodipodi-0.dtd"
   xmlns:inkscape="http://www.inkscape.org/namespaces/inkscape"
   width="3.3866668mm"
   height="5.0799999mm"
   viewBox="0 0 12.000001 18"
   id="svg6907"
   version="1.1"
   inkscape:version="0.91 r13725"
   sodipodi:docname="phone.svg">
  <defs
     id="defs6909" />
  <sodipodi:namedview
     id="base"
     pagecolor="#ffffff"
     bordercolor="#666666"
     borderopacity="1.0"
     inkscape:pageopacity="0.0"
     inkscape:pageshadow="2"
     inkscape:zoom="2.8"
     inkscape:cx="102.19537"
     inkscape:cy="-43.067257"
     inkscape:document-units="px"
     inkscape:current-layer="layer1"
     showgrid="false"
     fit-margin-top="0"
     fit-margin-left="0"
     fit-margin-right="0"
     fit-margin-bottom="0"
     showborder="false"
     inkscape:window-width="1920"
     inkscape:window-height="1027"
     inkscape:window-x="-8"
     inkscape:window-y="-8"
     inkscape:window-maximized="1" />
  <metadata
     id="metadata6912">
    <rdf:RDF>
      <cc:Work
         rdf:about="">
        <dc:format>image/svg+xml</dc:format>
        <dc:type
           rdf:resource="http://purl.org/dc/dcmitype/StillImage" />
        <dc:title></dc:title>
      </cc:Work>
    </rdf:RDF>
  </metadata>
  <g
     inkscape:label="Layer 1"
     inkscape:groupmode="layer"
     id="layer1"
     transform="translate(-448.34062,-481.71934)">
    <path
       id="path4621"
       d="m 458.46562,483.21934 c 0.207,0 0.375,0.168 0.375,0.375 l 0,14.25 c 0,0.207 -0.168,0.375 -0.375,0.375 l -8.25,0 c -0.207,0 -0.375,-0.168 -0.375,-0.375 l 0,-14.25 c 0,-0.207 0.168,-0.375 0.375,-0.375 l 8.25,0 z m 1.875,0 c 0,-0.828 -0.672,-1.5 -1.5,-1.5 l -9,0 c -0.828,0 -1.5,0.672 -1.5,1.5 l 0,15 c 0,0.828 0.672,1.5 1.5,1.5 l 9,0 c 0.828,0 1.5,-0.672 1.5,-1.5 l 0,-15 z m -7.125,0.75 2.25,0 c 0.207,0 0.375,0.168 0.375,0.37575 0,0.20625 -0.168,0.37425 -0.375,0.37425 l -2.25,0 c -0.20625,0 -0.375,-0.168 -0.375,-0.37425 0,-0.20775 0.16875,-0.37575 0.375,-0.37575 z m 1.125,13.5 c -0.41475,0 -0.75,-0.336 -0.75,-0.75 0,-0.414 0.33525,-0.75 0.75,-0.75 0.414,0 0.74925,0.336 0.74925,0.75 0,0.414 -0.33525,0.75 -0.74925,0.75 z m 3.75,-2.25 -7.5,0 0,-9.75 7.5,0 0,9.75 z"
       inkscape:connector-curvature="0"
       style="display:inline;opacity:1;fill:#666666"
       inkscape:export-filename="C:\Users\mscoh\Desktop\rect4496-7.png"
       inkscape:export-xdpi="144.9686"
       inkscape:export-ydpi="144.9686" />
  </g>
</svg>
