<svg xmlns="http://www.w3.org/2000/svg" width="60.472" height="60.472" viewBox="0 0 60 60"><path d="M28.964 0C12.97 0 0 12.969 0 28.964 0 44.96 12.969 57.93 28.964 57.93c15.996 0 28.965-12.97 28.965-28.965S44.959 0 28.964 0zm18.714 44.183c-.63-1.415-1.905-2.392-4.516-2.996-5.535-1.277-10.688-2.397-8.19-7.108 7.591-14.342 2.01-22.01-6.008-22.01-8.177 0-13.623 7.962-6.007 22.01 2.573 4.74-2.771 5.858-8.19 7.108-2.616.604-3.881 1.588-4.506 3.008a24.025 24.025 0 0 1-5.434-15.23c0-13.31 10.828-24.138 24.137-24.138 13.31 0 24.137 10.828 24.137 24.137 0 5.767-2.04 11.062-5.423 15.219z"/></svg>