<?xml version="1.0" encoding="UTF-8" standalone="no"?>
<!-- Created with Inkscape (http://www.inkscape.org/) -->

<svg
   xmlns:dc="http://purl.org/dc/elements/1.1/"
   xmlns:cc="http://creativecommons.org/ns#"
   xmlns:rdf="http://www.w3.org/1999/02/22-rdf-syntax-ns#"
   xmlns:svg="http://www.w3.org/2000/svg"
   xmlns="http://www.w3.org/2000/svg"
   xmlns:sodipodi="http://sodipodi.sourceforge.net/DTD/sodipodi-0.dtd"
   xmlns:inkscape="http://www.inkscape.org/namespaces/inkscape"
   width="16.00mm"
   height="16.00mm"
   viewBox="0 0 60 60"
   id="svg4656"
   version="1.1"
   inkscape:version="0.91 r13725"
   sodipodi:docname="skills.svg">
  <defs
     id="defs4658" />
  <sodipodi:namedview
     id="base"
     pagecolor="#ffffff"
     bordercolor="#666666"
     borderopacity="1.0"
     inkscape:pageopacity="0.0"
     inkscape:pageshadow="2"
     inkscape:zoom="7.9195959"
     inkscape:cx="29.098464"
     inkscape:cy="34.036081"
     inkscape:document-units="px"
     inkscape:current-layer="layer1"
     showgrid="false"
     showborder="true"
     inkscape:window-width="944"
     inkscape:window-height="723"
     inkscape:window-x="748"
     inkscape:window-y="146"
     inkscape:window-maximized="0"
     fit-margin-top="0"
     fit-margin-left="0"
     fit-margin-right="0"
     fit-margin-bottom="0" />
  <metadata
     id="metadata4661">
    <rdf:RDF>
      <cc:Work
         rdf:about="">
        <dc:format>image/svg+xml</dc:format>
        <dc:type
           rdf:resource="http://purl.org/dc/dcmitype/StillImage" />
        <dc:title></dc:title>
      </cc:Work>
    </rdf:RDF>
  </metadata>
  <g
     inkscape:label="Layer 1"
     inkscape:groupmode="layer"
     id="layer1"
     transform="translate(-31.035722,-63.397923)">
    <g
       id="g3862" />
    <path
       style="display:inline;opacity:1"
       id="path6027"
       d="m 60.702639,69.628287 c 13.142867,0 23.835446,10.692579 23.835446,23.835443 0,13.14288 -10.692579,23.83547 -23.835446,23.83547 -13.142864,0 -23.835443,-10.69259 -23.835443,-23.83547 0,-13.142864 10.692579,-23.835443 23.835443,-23.835443 z m 0,-4.767089 c -15.795748,0 -28.602532,12.806784 -28.602532,28.602532 0,15.79577 12.806784,28.60256 28.602532,28.60256 15.795751,0 28.602535,-12.80679 28.602535,-28.60256 0,-15.795748 -12.806784,-28.602532 -28.602535,-28.602532 z M 46.401373,86.313097 c 0,-1.315717 1.067829,-2.383543 2.383546,-2.383543 1.787658,0 3.172496,2.009327 1.904451,3.806519 -0.638789,0.905748 -0.48386,1.449195 -0.05243,2.085602 0.910514,1.341937 2.230997,2.450285 4.106846,2.450285 3.005649,0 4.593089,-2.483655 4.922018,-4.585942 0.11441,-0.731747 0.178778,-1.279963 -0.51961,-1.959273 -0.479093,-0.464792 -0.827091,-1.077361 -0.827091,-1.797191 0,-1.315717 1.067827,-2.383544 2.383544,-2.383544 1.315716,0 2.383545,1.067827 2.383545,2.383544 0,0.71983 -0.347999,1.332399 -0.829474,1.797191 -0.698378,0.67931 -0.634023,1.227526 -0.519613,1.959273 0.331312,2.102287 1.918752,4.585942 4.922021,4.585942 1.875849,0 3.196333,-1.108348 4.109229,-2.452668 0.431423,-0.634024 0.583969,-1.179855 -0.05243,-2.085602 -1.268045,-1.794809 0.116797,-3.804136 1.90445,-3.804136 1.315717,0 2.383546,1.067826 2.383546,2.383543 0,0.948652 -0.552983,1.780507 -1.363387,2.154725 -0.98202,0.452873 -1.020159,1.568372 -1.020159,2.586145 l 0,7.176853 -23.835443,0 0,-7.176853 c 0,-1.017773 -0.03813,-2.135655 -1.020157,-2.586145 -0.810404,-0.374218 -1.363388,-1.206073 -1.363388,-2.154725 z m 2.383546,14.301283 0,4.76707 23.835443,0 0,-4.76707 -23.835443,0 z"
       inkscape:connector-curvature="0" />
  </g>
</svg>
