<svg xmlns="http://www.w3.org/2000/svg" width="60.472" height="60.472" viewBox="0 0 60 60"><path d="M29.667 6.23c13.143 0 23.835 10.693 23.835 23.836 0 13.143-10.692 23.835-23.835 23.835S5.83 43.21 5.83 30.066 16.524 6.23 29.667 6.23zm0-4.767C13.87 1.463 1.064 14.27 1.064 30.066c0 15.795 12.807 28.602 28.603 28.602 15.795 0 28.602-12.806 28.602-28.602 0-15.796-12.807-28.603-28.602-28.603zM15.365 22.915a2.384 2.384 0 0 1 2.384-2.383c1.788 0 3.172 2.009 1.904 3.806-.638.906-.483 1.45-.052 2.086.91 1.342 2.23 2.45 4.107 2.45 3.005 0 4.593-2.484 4.922-4.586.114-.732.179-1.28-.52-1.96-.479-.464-.827-1.077-.827-1.796a2.384 2.384 0 0 1 4.767 0c0 .72-.348 1.332-.83 1.797-.698.68-.633 1.227-.519 1.959.331 2.102 1.919 4.586 4.922 4.586 1.876 0 3.196-1.108 4.11-2.453.43-.634.583-1.18-.053-2.085-1.268-1.795.117-3.804 1.904-3.804a2.384 2.384 0 0 1 2.384 2.383 2.37 2.37 0 0 1-1.363 2.155c-.982.453-1.02 1.568-1.02 2.586v7.177H17.748v-7.177c0-1.018-.038-2.136-1.02-2.586a2.37 2.37 0 0 1-1.364-2.155zm2.384 14.301v4.767h23.835v-4.767H17.75z"/></svg>