<svg xmlns="http://www.w3.org/2000/svg" width="60.472" height="60.472" viewBox="0 0 60 60"><path d="M29.667 1.463C13.87 1.463 1.064 14.27 1.064 30.066c0 15.796 12.807 28.602 28.603 28.602 15.796 0 28.602-12.806 28.602-28.602 0-15.796-12.806-28.603-28.602-28.603zM5.83 30.066C5.83 16.923 16.523 6.23 29.666 6.23c13.143 0 23.835 10.693 23.835 23.836a23.68 23.68 0 0 1-2.753 11.086l-3.282-3.282a7.643 7.643 0 0 1-2.216-5.993 14.946 14.946 0 0 0-4.339-11.75 14.868 14.868 0 0 0-10.554-4.362c-1.437 0-2.874.205-4.266.612l8.986 8.988c.977 4.503-5.554 11.108-10.111 10.111L15.98 26.49a15.125 15.125 0 0 0-.618 4.272 14.86 14.86 0 0 0 4.36 10.55 14.945 14.945 0 0 0 11.755 4.34 7.65 7.65 0 0 1 5.993 2.219l3.282 3.28a23.682 23.682 0 0 1-11.086 2.75C16.524 53.901 5.83 43.21 5.83 30.066z"/></svg>