<?xml version="1.0" encoding="UTF-8" standalone="no"?>
<!-- Created with Inkscape (http://www.inkscape.org/) -->

<svg
   xmlns:dc="http://purl.org/dc/elements/1.1/"
   xmlns:cc="http://creativecommons.org/ns#"
   xmlns:rdf="http://www.w3.org/1999/02/22-rdf-syntax-ns#"
   xmlns:svg="http://www.w3.org/2000/svg"
   xmlns="http://www.w3.org/2000/svg"
   xmlns:sodipodi="http://sodipodi.sourceforge.net/DTD/sodipodi-0.dtd"
   xmlns:inkscape="http://www.inkscape.org/namespaces/inkscape"
   width="16.00mm"
   height="16.00mm"
   viewBox="0 0 60 60"
   id="svg4656"
   version="1.1"
   inkscape:version="0.91 r13725"
   sodipodi:docname="tools.svg">
  <defs
     id="defs4658" />
  <sodipodi:namedview
     id="base"
     pagecolor="#ffffff"
     bordercolor="#666666"
     borderopacity="1.0"
     inkscape:pageopacity="0.0"
     inkscape:pageshadow="2"
     inkscape:zoom="7.9195959"
     inkscape:cx="29.098464"
     inkscape:cy="34.036081"
     inkscape:document-units="px"
     inkscape:current-layer="layer1"
     showgrid="false"
     showborder="true"
     inkscape:window-width="944"
     inkscape:window-height="723"
     inkscape:window-x="748"
     inkscape:window-y="146"
     inkscape:window-maximized="0"
     fit-margin-top="0"
     fit-margin-left="0"
     fit-margin-right="0"
     fit-margin-bottom="0" />
  <metadata
     id="metadata4661">
    <rdf:RDF>
      <cc:Work
         rdf:about="">
        <dc:format>image/svg+xml</dc:format>
        <dc:type
           rdf:resource="http://purl.org/dc/dcmitype/StillImage" />
        <dc:title></dc:title>
      </cc:Work>
    </rdf:RDF>
  </metadata>
  <g
     inkscape:label="Layer 1"
     inkscape:groupmode="layer"
     id="layer1"
     transform="translate(-31.035722,-63.397923)">
    <path
       style="display:inline;opacity:1"
       id="path5287"
       d="m 60.702639,64.861199 c -15.79575,0 -28.602536,12.806786 -28.602536,28.602537 0,15.795754 12.806786,28.602534 28.602536,28.602534 15.795753,0 28.602539,-12.80678 28.602539,-28.602534 0,-15.795751 -12.806786,-28.602537 -28.602539,-28.602537 z M 36.867193,93.463736 c 0,-13.142866 10.692581,-23.835447 23.835446,-23.835447 13.142868,0 23.835449,10.692581 23.835449,23.835447 0,4.001972 -1.003472,7.770354 -2.752994,11.085864 l -3.282141,-3.28214 C 76.925045,99.691941 76.11464,97.499078 76.286256,95.275232 76.612803,91.063508 75.163607,86.74214 71.948204,83.524355 69.02598,80.606896 65.214691,79.162468 61.393869,79.162468 c -1.437278,0 -2.874556,0.204992 -4.266547,0.612571 l 8.985964,8.988348 C 67.09054,93.265904 60.559627,99.870711 56.00229,98.874383 l -8.985964,-8.985965 c -0.409969,1.391992 -0.617338,2.831651 -0.617338,4.271314 0,3.818439 1.444428,7.632108 4.359504,10.549568 3.222551,3.22017 7.541534,4.66699 11.755643,4.34044 2.221465,-0.17162 4.414324,0.64117 5.992231,2.21908 l 3.282141,3.27976 c -3.315511,1.74952 -7.083895,2.7506 -11.085868,2.7506 -13.142865,0 -23.835446,-10.69257 -23.835446,-23.835444 z"
       inkscape:connector-curvature="0" />
  </g>
</svg>
