<?xml version="1.0" encoding="UTF-8" standalone="no"?>
<svg
   xmlns:dc="http://purl.org/dc/elements/1.1/"
   xmlns:cc="http://creativecommons.org/ns#"
   xmlns:rdf="http://www.w3.org/1999/02/22-rdf-syntax-ns#"
   xmlns:svg="http://www.w3.org/2000/svg"
   xmlns="http://www.w3.org/2000/svg"
   xmlns:sodipodi="http://sodipodi.sourceforge.net/DTD/sodipodi-0.dtd"
   xmlns:inkscape="http://www.inkscape.org/namespaces/inkscape"
   width="24"
   height="24"
   viewBox="0 0 24 24"
   id="svg2"
   version="1.1"
   inkscape:version="0.91 r13725"
   sodipodi:docname="worker.svg">
  <metadata
     id="metadata10">
    <rdf:RDF>
      <cc:Work
         rdf:about="">
        <dc:format>image/svg+xml</dc:format>
        <dc:type
           rdf:resource="http://purl.org/dc/dcmitype/StillImage" />
      </cc:Work>
    </rdf:RDF>
  </metadata>
  <defs
     id="defs8" />
  <sodipodi:namedview
     pagecolor="#ffffff"
     bordercolor="#666666"
     borderopacity="1"
     objecttolerance="10"
     gridtolerance="10"
     guidetolerance="10"
     inkscape:pageopacity="0"
     inkscape:pageshadow="2"
     inkscape:window-width="1920"
     inkscape:window-height="1027"
     id="namedview6"
     showgrid="false"
     inkscape:zoom="9.8333333"
     inkscape:cx="-3"
     inkscape:cy="12"
     inkscape:window-x="-8"
     inkscape:window-y="-8"
     inkscape:window-maximized="1"
     inkscape:current-layer="svg2" />
  <path
     d="m 12,15 c -4.42,0 -8,1.79 -8,4 l 0,2 16,0 0,-2 c 0,-2.21 -3.58,-4 -8,-4"
     id="path3342"
     style="fill:#5b7da2;fill-opacity:1" />
  <path
     d="m 8,9 a 4,4 0 0 0 4,4 4,4 0 0 0 4,-4"
     id="path3340"
     style="fill:#e3e3e3;fill-opacity:1" />
  <path
     d="M 11.5,2 C 11.2,2 11,2.21 11,2.5 l 0,3 -1,0 L 10,3 C 10,3 7.75,3.86 7.75,6.75 7.75,6.75 7,6.89 7,8 L 17,8 C 16.95,6.89 16.25,6.75 16.25,6.75 16.25,3.86 14,3 14,3 l 0,2.5 -1,0 0,-3 C 13,2.21 12.81,2 12.5,2 l -1,0 z"
     id="path4"
     style="fill:#916f6f;fill-opacity:1" />
</svg>
