<?xml version="1.0" encoding="UTF-8" standalone="no"?>
<svg
   xmlns:dc="http://purl.org/dc/elements/1.1/"
   xmlns:cc="http://creativecommons.org/ns#"
   xmlns:rdf="http://www.w3.org/1999/02/22-rdf-syntax-ns#"
   xmlns:svg="http://www.w3.org/2000/svg"
   xmlns="http://www.w3.org/2000/svg"
   xmlns:xlink="http://www.w3.org/1999/xlink"
   xmlns:sodipodi="http://sodipodi.sourceforge.net/DTD/sodipodi-0.dtd"
   xmlns:inkscape="http://www.inkscape.org/namespaces/inkscape"
   inkscape:version="1.0 (4035a4fb49, 2020-05-01)"
   sodipodi:docname="calendar.svg"
   version="1.1"
   viewBox="0 0 835.61 660.05"
   height="660.05"
   width="835.61"
   data-name="Layer 1"
   id="3cd38589-f6b5-4ced-9f2c-9a4b79f01fae">
  <metadata
     id="metadata1235">
    <rdf:RDF>
      <cc:Work
         rdf:about="">
        <dc:format>image/svg+xml</dc:format>
        <dc:type
           rdf:resource="http://purl.org/dc/dcmitype/StillImage" />
      </cc:Work>
    </rdf:RDF>
  </metadata>
  <sodipodi:namedview
     inkscape:current-layer="3cd38589-f6b5-4ced-9f2c-9a4b79f01fae"
     inkscape:window-maximized="0"
     inkscape:window-y="40"
     inkscape:window-x="1273"
     inkscape:cy="330.02499"
     inkscape:cx="417.80499"
     inkscape:zoom="0.82574408"
     showgrid="false"
     id="namedview1233"
     inkscape:window-height="1368"
     inkscape:window-width="1278"
     inkscape:pageshadow="2"
     inkscape:pageopacity="0"
     guidetolerance="10"
     gridtolerance="10"
     objecttolerance="10"
     borderopacity="1"
     bordercolor="#666666"
     pagecolor="#ffffff" />
  <defs
     id="defs1058">
    <linearGradient
       gradientUnits="userSpaceOnUse"
       x2="435.61"
       y1="529"
       x1="435.61"
       id="459c4fc8-d836-433f-a197-0a2a91cd58e2">
      <stop
         id="stop1035"
         stop-opacity="0.25"
         stop-color="gray"
         offset="0" />
      <stop
         id="stop1037"
         stop-opacity="0.12"
         stop-color="gray"
         offset="0.54" />
      <stop
         id="stop1039"
         stop-opacity="0.1"
         stop-color="gray"
         offset="1" />
    </linearGradient>
    <linearGradient
       xlink:href="#459c4fc8-d836-433f-a197-0a2a91cd58e2"
       y2="95"
       x2="435.61"
       y1="488"
       x1="435.61"
       id="342ea0e6-6062-49b7-bc20-c734cb7a73a4" />
    <linearGradient
       xlink:href="#459c4fc8-d836-433f-a197-0a2a91cd58e2"
       y2="316.95"
       x2="171.55"
       y1="660.05"
       x1="171.55"
       id="763d00b7-5a07-4818-8ebb-d18341e18e84" />
    <linearGradient
       xlink:href="#459c4fc8-d836-433f-a197-0a2a91cd58e2"
       y2="480.38"
       x2="171.55"
       y1="496.61"
       x1="171.55"
       id="92069d5c-e5f8-43fe-b38d-e54af900eab7" />
    <linearGradient
       xlink:href="#459c4fc8-d836-433f-a197-0a2a91cd58e2"
       y2="382.5"
       x2="194.61"
       y1="489.5"
       x1="194.61"
       id="cc2cb1f8-9965-47fb-9589-218376181648" />
    <linearGradient
       xlink:href="#459c4fc8-d836-433f-a197-0a2a91cd58e2"
       y2="488.5"
       x2="187.61"
       y1="544.5"
       x1="187.61"
       id="21b9629b-50a9-4ebb-aca6-e4e0185f53fc" />
    <linearGradient
       xlink:href="#459c4fc8-d836-433f-a197-0a2a91cd58e2"
       gradientTransform="translate(1170.3 491.9) rotate(120)"
       y2="769.85"
       x2="509.54"
       y1="778.88"
       x1="509.54"
       id="fcd1d80a-fd87-48d8-ac9f-c26a469979c7" />
    <linearGradient
       xlink:href="#459c4fc8-d836-433f-a197-0a2a91cd58e2"
       gradientTransform="translate(370.3 -32.65) rotate(30)"
       y2="670.14"
       x2="246.07"
       y1="679.17"
       x1="246.07"
       id="103b5314-699c-4416-ba96-f0315aa2be6d" />
    <linearGradient
       xlink:href="#459c4fc8-d836-433f-a197-0a2a91cd58e2"
       gradientTransform="translate(110.34 -349.73) rotate(30)"
       y2="756.99"
       x2="364.44"
       y1="766.03"
       x1="364.44"
       id="f7eccc56-af47-4388-bae2-3610c4149eb5" />
    <linearGradient
       xlink:href="#459c4fc8-d836-433f-a197-0a2a91cd58e2"
       gradientTransform="translate(1232.03 299.71) rotate(120)"
       y2="710.44"
       x2="643.63"
       y1="719.48"
       x1="643.63"
       id="bcd8726a-d7c5-49b1-9a44-0b3978539435" />
    <linearGradient
       xlink:href="#459c4fc8-d836-433f-a197-0a2a91cd58e2"
       gradientTransform="translate(1232.3 266.24) rotate(120)"
       y2="647.85"
       x2="627.41"
       y1="656.89"
       x1="627.41"
       id="391a46f9-b208-48d2-be26-d2096ab99e61" />
    <linearGradient
       xlink:href="#459c4fc8-d836-433f-a197-0a2a91cd58e2"
       gradientTransform="translate(1248.8 237.12) rotate(120)"
       y2="585.26"
       x2="643.63"
       y1="594.29"
       x1="643.63"
       id="83f8f054-eb9c-442d-b51f-167d68b16295" />
    <linearGradient
       xlink:href="#459c4fc8-d836-433f-a197-0a2a91cd58e2"
       gradientTransform="translate(1278.2 220.15) rotate(120)"
       y2="538.89"
       x2="690"
       y1="547.93"
       x1="690"
       id="ae1ae34d-eb1b-4711-a510-1c391231e596" />
    <linearGradient
       xlink:href="#459c4fc8-d836-433f-a197-0a2a91cd58e2"
       gradientTransform="translate(1342.37 237.96) rotate(120)"
       y2="540.05"
       x2="818.66"
       y1="549.09"
       x1="818.66"
       id="9891a10d-f6cd-4be8-8439-1a188b457eca" />
    <linearGradient
       xlink:href="#459c4fc8-d836-433f-a197-0a2a91cd58e2"
       gradientTransform="translate(1358.61 267.78) rotate(120)"
       y2="587.58"
       x2="863.87"
       y1="596.61"
       x1="863.87"
       id="fc0ab291-1c38-49b0-9137-a4534010b0cb" />
    <linearGradient
       xlink:href="#459c4fc8-d836-433f-a197-0a2a91cd58e2"
       gradientTransform="translate(1357.49 299.78) rotate(120)"
       y2="647.85"
       x2="877.78"
       y1="656.89"
       x1="877.78"
       id="28dee737-f47b-4c6f-813e-2c0be0b581eb" />
    <linearGradient
       xlink:href="#459c4fc8-d836-433f-a197-0a2a91cd58e2"
       gradientTransform="translate(1342.46 328.06) rotate(120)"
       y2="708.13"
       x2="863.87"
       y1="717.16"
       x1="863.87"
       id="228de15d-ea7a-43bb-9b48-ae33db5c4fe2" />
  </defs>
  <title
     id="title1060">calendar</title>
  <rect
     id="rect1062"
     fill="url(#459c4fc8-d836-433f-a197-0a2a91cd58e2)"
     height="529"
     width="800"
     x="35.61" />
  <rect
     id="rect1064"
     fill="#fff"
     height="450.5"
     width="784"
     y="62.5"
     x="42.61" />
  <rect
     id="rect1066"
     fill="#696969"
     height="51.5"
     width="784"
     y="11"
     x="42.61" />
  <rect
     id="rect1068"
     fill="url(#342ea0e6-6062-49b7-bc20-c734cb7a73a4)"
     height="393"
     width="764"
     y="95"
     x="53.61" />
  <rect
     id="rect1070"
     opacity="0.5"
     fill="#696969"
     height="73.5"
     width="92"
     y="102"
     x="63.11" />
  <rect
     id="rect1072"
     fill="#fff"
     height="73.5"
     width="92"
     y="102"
     x="156.11" />
  <rect
     id="rect1074"
     opacity="0.2"
     fill="#696969"
     height="73.5"
     width="92"
     y="102"
     x="249.11" />
  <rect
     id="rect1076"
     fill="#fff"
     height="73.5"
     width="92"
     y="102"
     x="342.11" />
  <rect
     id="rect1078"
     fill="#fff"
     height="73.5"
     width="92"
     y="102"
     x="435.11" />
  <rect
     id="rect1080"
     opacity="0.5"
     fill="#696969"
     height="73.5"
     width="92"
     y="102"
     x="528.11" />
  <rect
     id="rect1082"
     fill="#fff"
     height="73.5"
     width="92"
     y="102"
     x="621.11" />
  <rect
     id="rect1084"
     opacity="0.2"
     fill="#696969"
     height="73.5"
     width="92"
     y="102"
     x="714.11" />
  <rect
     id="rect1086"
     opacity="0.2"
     fill="#696969"
     height="73.5"
     width="92"
     y="177"
     x="63.11" />
  <rect
     id="rect1088"
     opacity="0.2"
     fill="#696969"
     height="73.5"
     width="92"
     y="177"
     x="156.11" />
  <rect
     id="rect1090"
     fill="#fff"
     height="73.5"
     width="92"
     y="177"
     x="249.11" />
  <rect
     id="rect1092"
     opacity="0.5"
     fill="#696969"
     height="73.5"
     width="92"
     y="177"
     x="342.11" />
  <rect
     id="rect1094"
     fill="#fff"
     height="73.5"
     width="92"
     y="177"
     x="435.11" />
  <rect
     id="rect1096"
     opacity="0.2"
     fill="#696969"
     height="73.5"
     width="92"
     y="177"
     x="528.11" />
  <rect
     id="rect1098"
     opacity="0.5"
     fill="#696969"
     height="73.5"
     width="92"
     y="177"
     x="621.11" />
  <rect
     id="rect1100"
     fill="#fff"
     height="73.5"
     width="92"
     y="177"
     x="714.11" />
  <rect
     id="rect1102"
     fill="#fff"
     height="73.5"
     width="92"
     y="251"
     x="63.11" />
  <rect
     id="rect1104"
     fill="#fff"
     height="73.5"
     width="92"
     y="251"
     x="156.11" />
  <rect
     id="rect1106"
     opacity="0.2"
     fill="#696969"
     height="73.5"
     width="92"
     y="251"
     x="249.11" />
  <rect
     id="rect1108"
     fill="#fff"
     height="73.5"
     width="92"
     y="251"
     x="342.11" />
  <rect
     id="rect1110"
     opacity="0.2"
     fill="#696969"
     height="73.5"
     width="92"
     y="251"
     x="435.11" />
  <rect
     id="rect1112"
     fill="#fff"
     height="73.5"
     width="92"
     y="251"
     x="528.11" />
  <rect
     id="rect1114"
     fill="#fff"
     height="73.5"
     width="92"
     y="251"
     x="621.11" />
  <rect
     id="rect1116"
     opacity="0.2"
     fill="#696969"
     height="73.5"
     width="92"
     y="251"
     x="714.11" />
  <rect
     id="rect1118"
     fill="#fff"
     height="73.5"
     width="92"
     y="325"
     x="63.11" />
  <rect
     id="rect1120"
     opacity="0.5"
     fill="#696969"
     height="73.5"
     width="92"
     y="325"
     x="156.11" />
  <rect
     id="rect1122"
     opacity="0.5"
     fill="#696969"
     height="73.5"
     width="92"
     y="325"
     x="249.11" />
  <rect
     id="rect1124"
     fill="#fff"
     height="73.5"
     width="92"
     y="325"
     x="342.11" />
  <rect
     id="rect1126"
     fill="#fff"
     height="73.5"
     width="92"
     y="325"
     x="435.11" />
  <rect
     id="rect1128"
     opacity="0.5"
     fill="#696969"
     height="73.5"
     width="92"
     y="325"
     x="528.11" />
  <rect
     id="rect1130"
     fill="#fff"
     height="73.5"
     width="92"
     y="325"
     x="621.11" />
  <rect
     id="rect1132"
     opacity="0.5"
     fill="#696969"
     height="73.5"
     width="92"
     y="325"
     x="714.11" />
  <rect
     id="rect1134"
     opacity="0.5"
     fill="#696969"
     height="73.5"
     width="92"
     y="400"
     x="63.11" />
  <rect
     id="rect1136"
     opacity="0.2"
     fill="#696969"
     height="73.5"
     width="92"
     y="400"
     x="156.11" />
  <rect
     id="rect1138"
     fill="#fff"
     height="73.5"
     width="92"
     y="400"
     x="249.11" />
  <rect
     id="rect1140"
     opacity="0.5"
     fill="#696969"
     height="73.5"
     width="92"
     y="400"
     x="342.11" />
  <rect
     id="rect1142"
     opacity="0.2"
     fill="#696969"
     height="73.5"
     width="92"
     y="400"
     x="435.11" />
  <rect
     id="rect1144"
     fill="#fff"
     height="73.5"
     width="92"
     y="400"
     x="528.11" />
  <rect
     id="rect1146"
     opacity="0.2"
     fill="#696969"
     height="73.5"
     width="92"
     y="400"
     x="621.11" />
  <rect
     id="rect1148"
     fill="#fff"
     height="73.5"
     width="92"
     y="400"
     x="714.11" />
  <rect
     style="fill:#8572c0;fill-opacity:1"
     id="rect1150"
     fill="#72c098"
     height="28"
     width="28"
     y="258"
     x="70.61" />
  <rect
     style="fill:#c07b72;fill-opacity:1"
     id="rect1152"
     fill="#72c098"
     height="28"
     width="28"
     y="110"
     x="348.61" />
  <rect
     style="fill:#729ac0;fill-opacity:1"
     id="rect1154"
     fill="#72c098"
     height="28"
     width="28"
     y="258"
     x="345.61" />
  <rect
     style="fill:#72c098;fill-opacity:1"
     id="rect1156"
     fill="#72c098"
     height="28"
     width="28"
     y="329"
     x="440.61" />
  <rect
     style="fill:#729ac0;fill-opacity:1"
     id="rect1158"
     fill="#72c098"
     height="28"
     width="28"
     y="258"
     x="625.61" />
  <circle
     id="circle1160"
     fill="url(#763d00b7-5a07-4818-8ebb-d18341e18e84)"
     r="171.55"
     cy="488.5"
     cx="171.55" />
  <circle
     id="circle1162"
     fill="#696969"
     r="166.92"
     cy="488.5"
     cx="171.55" />
  <circle
     id="circle1164"
     fill="#fff"
     r="135.62"
     cy="488.5"
     cx="171.55" />
  <circle
     id="circle1166"
     fill="url(#92069d5c-e5f8-43fe-b38d-e54af900eab7)"
     r="8.11"
     cy="488.5"
     cx="171.55" />
  <line
     id="line1168"
     fill="#696969"
     y2="488.5"
     x2="172.71"
     y1="384.18"
     x1="216.76" />
  <polygon
     id="polygon1170"
     fill="url(#cc2cb1f8-9965-47fb-9589-218376181648)"
     points="174.61 489.5 169.61 487.82 214.61 382.5 219.61 384.85 174.61 489.5" />
  <rect
     id="rect1172"
     fill="#4176a7"
     transform="translate(-464.39 567.17) rotate(-67.11)"
     height="3.48"
     width="113.24"
     y="554.57"
     x="320.31" />
  <line
     id="line1174"
     fill="#696969"
     y2="542.98"
     x2="201.69"
     y1="489.66"
     x1="172.71" />
  <polygon
     id="polygon1176"
     fill="url(#21b9629b-50a9-4ebb-aca6-e4e0185f53fc)"
     points="199.61 544.5 170.61 490.5 174.61 488.5 204.61 541.5 199.61 544.5" />
  <rect
     id="rect1178"
     fill="#4176a7"
     transform="translate(-441.2 133.65) rotate(-28.52)"
     height="60.69"
     width="3.48"
     y="605.95"
     x="367.66" />
  <circle
     id="circle1180"
     fill="#696969"
     r="3.48"
     cy="491.98"
     cx="297.9" />
  <circle
     id="circle1182"
     fill="url(#fcd1d80a-fd87-48d8-ac9f-c26a469979c7)"
     transform="translate(-532.58 365.12) rotate(-60)"
     r="4.52"
     cy="545.99"
     cx="244.91" />
  <circle
     id="circle1184"
     fill="url(#103b5314-699c-4416-ba96-f0315aa2be6d)"
     transform="translate(-486.56 93.44) rotate(-30)"
     r="4.52"
     cy="674.66"
     cx="246.07" />
  <circle
     id="circle1186"
     fill="url(#f7eccc56-af47-4388-bae2-3610c4149eb5)"
     r="4.52"
     cy="491.98"
     cx="45.21" />
  <circle
     id="circle1188"
     fill="url(#bcd8726a-d7c5-49b1-9a44-0b3978539435)"
     transform="translate(-393.02 92.48) rotate(-30)"
     r="4.52"
     cy="499.63"
     cx="291.04" />
  <circle
     id="circle1190"
     fill="url(#391a46f9-b208-48d2-be26-d2096ab99e61)"
     transform="translate(-376.52 121.6) rotate(-30)"
     r="4.52"
     cy="483.41"
     cx="353.63" />
  <circle
     id="circle1192"
     fill="url(#83f8f054-eb9c-442d-b51f-167d68b16295)"
     transform="translate(-376.25 155.08) rotate(-30)"
     r="4.52"
     cy="499.63"
     cx="416.23" />
  <circle
     id="circle1194"
     fill="url(#ae1ae34d-eb1b-4711-a510-1c391231e596)"
     transform="translate(-393.22 184.47) rotate(-30)"
     r="4.52"
     cy="546"
     cx="462.59" />
  <circle
     id="circle1196"
     fill="url(#9891a10d-f6cd-4be8-8439-1a188b457eca)"
     transform="translate(-457.7 201.13) rotate(-30)"
     r="4.52"
     cy="674.66"
     cx="461.43" />
  <circle
     id="circle1198"
     fill="url(#fc0ab291-1c38-49b0-9137-a4534010b0cb)"
     transform="translate(-486.68 183.42) rotate(-30)"
     r="4.52"
     cy="719.87"
     cx="413.91" />
  <circle
     id="circle1200"
     fill="url(#28dee737-f47b-4c6f-813e-2c0be0b581eb)"
     transform="translate(-501.71 155.15) rotate(-30)"
     r="4.52"
     cy="733.78"
     cx="353.63" />
  <circle
     id="circle1202"
     fill="url(#228de15d-ea7a-43bb-9b48-ae33db5c4fe2)"
     transform="translate(-502.83 123.15) rotate(-30)"
     r="4.52"
     cy="719.87"
     cx="293.36" />
  <circle
     id="circle1204"
     fill="#72c098"
     r="3.48"
     cy="363.31"
     cx="171.55" />
  <circle
     id="circle1206"
     fill="#72c098"
     transform="translate(-407.09 490.61) rotate(-60)"
     r="3.48"
     cy="500.06"
     cx="416.34" />
  <circle
     id="circle1208"
     fill="#72c098"
     transform="translate(-393.22 184.24) rotate(-30)"
     r="3.48"
     cy="545.88"
     cx="462.16" />
  <circle
     id="circle1210"
     fill="#72c098"
     transform="translate(-535.75 616.96) rotate(-60)"
     r="3.48"
     cy="674.66"
     cx="461.43" />
  <circle
     id="circle1212"
     fill="#72c098"
     transform="translate(-486.56 183.39) rotate(-30)"
     r="3.48"
     cy="719.63"
     cx="413.91" />
  <circle
     id="circle1214"
     fill="#72c098"
     transform="translate(-393.22 92.6) rotate(-30)"
     r="3.48"
     cy="500.06"
     cx="291.15" />
  <circle
     id="circle1216"
     fill="#72c098"
     transform="translate(-532.27 365.43) rotate(-60)"
     r="3.48"
     cy="545.88"
     cx="245.33" />
  <circle
     id="circle1218"
     fill="#72c098"
     transform="translate(-423.92 202.02) rotate(-30)"
     r="4.52"
     cy="612.07"
     cx="479.98" />
  <circle
     id="circle1220"
     fill="#72c098"
     transform="translate(-486.56 93.44) rotate(-30)"
     r="3.48"
     cy="674.66"
     cx="246.07" />
  <circle
     id="circle1222"
     fill="#72c098"
     transform="translate(-658.62 494.09) rotate(-60)"
     r="3.48"
     cy="719.63"
     cx="293.58" />
  <circle
     id="circle1224"
     fill="#72c098"
     r="3.48"
     cy="491.98"
     cx="45.21" />
  <circle
     id="circle1226"
     fill="#72c098"
     r="3.48"
     cy="613.68"
     cx="171.55" />
  <path
     id="path1228"
     opacity="0.2"
     fill="#696969"
     transform="translate(-182.19 -119.97)"
     d="M225.08,621.22a135.64,135.64,0,0,1,253.28-67.48A135.64,135.64,0,1,0,236.08,674.8,135.16,135.16,0,0,1,225.08,621.22Z" />
  <circle
     id="circle1230"
     fill="#72c098"
     r="5.8"
     cy="488.5"
     cx="171.55" />
</svg>
