<svg width="610" height="400" xmlns="http://www.w3.org/2000/svg">
 <title>proud_coder</title>

 <g>
  <title>background</title>
  <rect fill="none" id="canvas_background" height="402" width="612" y="-1" x="-1"/>
 </g>
 <g>
  <title>Layer 1</title>
  <rect id="svg_1" fill="#e6e6e6" height="391.60712" width="611.46146" y="0.34664" x="0.41138"/>
  <rect id="svg_2" fill="#fff" height="319.32231" width="576.49225" y="49.46394" x="17.89598"/>
  <rect y="0" id="svg_3" fill="#729ac0" height="25.97712" width="611.46146" x="0.1503"/>
  <circle id="svg_4" fill="#fff" r="4.81466" cy="13.28088" cx="19.45441"/>
  <circle id="svg_5" fill="#fff" r="4.81466" cy="13.28088" cx="37.72965"/>
  <circle id="svg_6" fill="#fff" r="4.81466" cy="13.28088" cx="56.00489"/>
  <path id="svg_7" fill="#ccc" d="m431.26687,79.3726l-187.68714,0a1.66587,1.66587 0 0 1 0,-3.30318l187.68714,0a1.66587,1.66587 0 0 1 0,3.30318z"/>
  <path id="svg_8" fill="#ccc" d="m301.21822,97.54004l-119.33194,0a1.66587,1.66587 0 0 1 0,-3.30317l119.33194,0a1.66587,1.66587 0 0 1 0,3.30317z"/>
  <path id="svg_9" fill="#ccc" d="m431.26687,97.87037l-119.33195,0a1.66587,1.66587 0 0 1 0,-3.30317l119.332,0a1.66587,1.66587 0 0 1 0,3.30317l-0.00005,0z"/>
  <path id="svg_10" fill="#ccc" d="m301.50786,115.70751l-119.33194,0a1.66587,1.66587 0 0 1 0,-3.30317l119.33194,0a1.66587,1.66587 0 0 1 0,3.30317z"/>
  <path id="svg_11" fill="#ccc" d="m301.7975,133.87497l-119.33194,0a1.66587,1.66587 0 0 1 0,-3.30317l119.33194,0a1.66587,1.66587 0 0 1 0,3.30317z"/>
  <path id="svg_12" fill="#ccc" d="m355.9603,115.70751l-34.17759,0a1.66587,1.66587 0 0 1 0,-3.30317l34.17759,0a1.66587,1.66587 0 0 1 0,3.30317z"/>
  <path id="svg_13" fill="#ccc" d="m355.9603,133.54465l-34.17759,0a1.66587,1.66587 0 0 1 0,-3.30317l34.17759,0a1.66587,1.66587 0 0 1 0,3.30317z"/>
  <path id="svg_14" fill="#ccc" d="m413.30915,133.54465l-34.1776,0a1.66587,1.66587 0 0 1 0,-3.30317l34.1776,0a1.66587,1.66587 0 0 1 0,3.30317z"/>
  <path id="svg_15" fill="#ccc" d="m215.19495,79.3726l-34.1776,0a1.66587,1.66587 0 0 1 0,-3.30318l34.1776,0a1.66587,1.66587 0 0 1 0,3.30318z"/>
  <path id="svg_16" fill="#ccc" d="m300.78376,287.67839l-119.33195,0a1.66587,1.66587 0 0 1 0,-3.30317l119.332,0a1.66587,1.66587 0 0 1 0,3.30317l-0.00005,0z"/>
  <path id="svg_17" fill="#ccc" d="m300.20448,324.01331l-119.33195,0a1.66587,1.66587 0 0 1 0,-3.30318l119.332,0a1.66587,1.66587 0 0 1 0,3.30318l-0.00005,0z"/>
  <path id="svg_18" fill="#ccc" d="m300.49412,342.18077l-119.33195,0a1.66587,1.66587 0 0 1 0,-3.30318l119.332,0a1.66587,1.66587 0 0 1 0,3.30318l-0.00005,0z"/>
  <path id="svg_19" fill="#ccc" d="m351.47087,324.34363l-34.17759,0a1.66587,1.66587 0 0 1 0,-3.30318l34.17759,0a1.66587,1.66587 0 0 1 0,3.30318z"/>
  <path id="svg_20" fill="#ccc" d="m351.47087,342.18077l-34.17759,0a1.66587,1.66587 0 0 1 0,-3.30318l34.17759,0a1.66587,1.66587 0 0 1 0,3.30318z"/>
  <path id="svg_21" fill="#ccc" d="m408.81972,324.34363l-34.1776,0a1.66587,1.66587 0 0 1 0,-3.30318l34.1776,0a1.66587,1.66587 0 0 1 0,3.30318z"/>
  <path id="svg_22" fill="#ccc" d="m431.41169,305.84585l-187.68714,0a1.66587,1.66587 0 0 1 0,-3.30317l187.68714,0a1.66587,1.66587 0 0 1 0,3.30317z"/>
  <path id="svg_23" fill="#ccc" d="m215.33977,305.84585l-34.1776,0a1.66587,1.66587 0 0 1 0,-3.30317l34.1776,0a1.66587,1.66587 0 0 1 0,3.30317z"/>
  <polygon id="svg_24" fill="#e6e6e6" points="271.96502685546875,163.2209930419922 225.62200927734375,208.98500061035156 271.96502685546875,254.74801635742188 282.39202880859375,244.3209991455078 247.344970703125,209.2740020751953 282.6810302734375,173.93800354003906 271.96502685546875,163.2209930419922 "/>
  <polygon id="svg_25" fill="#e6e6e6" points="340.32000732421875,163.2209930419922 386.6619873046875,208.98500061035156 340.32000732421875,254.74801635742188 329.89300537109375,244.3209991455078 364.93902587890625,209.2740020751953 329.60302734375,173.93800354003906 340.32000732421875,163.2209930419922 "/>
  <polygon id="svg_26" fill="#729ac0" points="271.96502685546875,163.2209930419922 225.62200927734375,208.98500061035156 271.96502685546875,254.74801635742188 282.39202880859375,244.3209991455078 247.344970703125,209.2740020751953 282.6810302734375,173.93800354003906 271.96502685546875,163.2209930419922 "/>
  <polygon id="svg_27" fill="#729ac0" points="340.32000732421875,163.2209930419922 386.6619873046875,208.98500061035156 340.32000732421875,254.74801635742188 329.89300537109375,244.3209991455078 364.93902587890625,209.2740020751953 329.60302734375,173.93800354003906 340.32000732421875,163.2209930419922 "/>
 </g>
</svg>